/* XPM */
static char *db91065ad0ed462589ac7fde80214402527i2oXyaR87LD00[] = {
/* columns rows colors chars-per-pixel */
"64 64 254 2 ",
"   c None",
".  c #3A1D06",
"X  c #3C270B",
"o  c #3D2613",
"O  c #3D2915",
"+  c #34271C",
"@  c #34291E",
"#  c #3D2B1C",
"$  c #382716",
"%  c #373119",
"&  c #2D2925",
"*  c #2B2726",
"=  c #332A23",
"-  c #3A2C22",
";  c #322D2A",
":  c #3D3124",
">  c #3C332B",
",  c #36332A",
"<  c #383534",
"1  c #461D03",
"2  c #4E1E11",
"3  c #442304",
"4  c #4B2503",
"5  c #44260C",
"6  c #4B260B",
"7  c #452A0C",
"8  c #4C2B0D",
"9  c #4B2A05",
"0  c #532B05",
"q  c #5B2C03",
"w  c #532C0C",
"e  c #5A2D0B",
"r  c #542504",
"t  c #4B340C",
"y  c #55310D",
"u  c #5B330D",
"i  c #5B3606",
"p  c #432512",
"a  c #452A13",
"s  c #4B2C13",
"d  c #432C1A",
"f  c #4C2C1A",
"g  c #482416",
"h  c #522D13",
"j  c #552C1A",
"k  c #4C3114",
"l  c #4C321A",
"z  c #453118",
"x  c #533214",
"c  c #5B3413",
"v  c #5C3A14",
"b  c #54331B",
"n  c #5C351A",
"m  c #5C391B",
"M  c #553A1A",
"N  c #6A3A0C",
"B  c #663609",
"V  c #743D09",
"C  c #633613",
"Z  c #633A14",
"A  c #6B3C14",
"S  c #643C1B",
"D  c #6B3D1B",
"F  c #653618",
"G  c #733D15",
"H  c #632B0E",
"J  c #452C24",
"K  c #522B27",
"L  c #433224",
"P  c #483727",
"I  c #583924",
"U  c #4B3533",
"Y  c #653B23",
"T  c #5D4216",
"R  c #6B420B",
"E  c #79470D",
"W  c #6B431B",
"Q  c #684316",
"!  c #744314",
"~  c #7B4514",
"^  c #74441B",
"/  c #7A461B",
"(  c #76491C",
")  c #7C4A1C",
"_  c #7B4A14",
"`  c #7A5113",
"'  c #5D4227",
"]  c #5D4730",
"[  c #6C4422",
"{  c #6A4728",
"}  c #734422",
"|  c #7B4C22",
" . c #744B28",
".. c #7B5527",
"X. c #785534",
"o. c #6B4D33",
"O. c #7C613A",
"+. c #7A5C46",
"@. c #7C6049",
"#. c #803C06",
"$. c #83460A",
"%. c #9B540E",
"&. c #834B14",
"*. c #834C1C",
"=. c #8B4D1B",
"-. c #884916",
";. c #924E14",
":. c #8C5314",
">. c #8C521C",
",. c #87551A",
"<. c #935314",
"1. c #93541A",
"2. c #9D5B1B",
"3. c #995818",
"4. c #8D500E",
"5. c #A25C14",
"6. c #A35D1B",
"7. c #AA5E19",
"8. c #AF5D12",
"9. c #A4621D",
"0. c #AB641C",
"q. c #AB691A",
"w. c #B3641B",
"e. c #BC6B1C",
"r. c #B86817",
"t. c #B76F14",
"y. c #844E23",
"u. c #884F26",
"i. c #845323",
"p. c #8C5422",
"a. c #8C5A2B",
"s. c #88572A",
"d. c #935521",
"f. c #955A23",
"g. c #9C5C22",
"h. c #935B2B",
"j. c #95562A",
"k. c #865A35",
"l. c #955B35",
"z. c #A35C23",
"x. c #A65C25",
"c. c #9C6223",
"v. c #9B632C",
"b. c #94632C",
"n. c #8B623A",
"m. c #9C6634",
"M. c #986636",
"N. c #8D692E",
"B. c #A46223",
"V. c #AC6523",
"C. c #A56B2C",
"Z. c #A96828",
"A. c #B56B23",
"S. c #BD6C24",
"D. c #B36C2B",
"F. c #B56825",
"G. c #BC7223",
"H. c #BB732B",
"J. c #B67428",
"K. c #A66A37",
"L. c #AD7439",
"P. c #B77839",
"I. c #B16F2C",
"U. c #C46A17",
"Y. c #C7741B",
"T. c #CC7715",
"R. c #C36E22",
"E. c #C27423",
"W. c #C2742B",
"Q. c #C37A2D",
"!. c #CD7D2B",
"~. c #C97824",
"^. c #D47D29",
"/. c #C47B33",
"(. c #C87B36",
"). c #E17406",
"_. c #855D43",
"`. c #966842",
"'. c #946F4D",
"]. c #A87647",
"[. c #B77C45",
"{. c #A87A55",
"}. c #A26A42",
"|. c #C17C40",
" X c #B38134",
".X c #D6842A",
"XX c #CD8334",
"oX c #C5843C",
"OX c #CA823B",
"+X c #D58434",
"@X c #DC8534",
"#X c #D2843B",
"$X c #D88939",
"%X c #D38C30",
"&X c #E48A36",
"*X c #EC8C31",
"=X c #B9885A",
"-X c #B5864F",
";X c #B58963",
":X c #B59375",
">X c #B18F72",
",X c #C98647",
"<X c #D68B47",
"1X c #D89348",
"2X c #C78C54",
"3X c #C99459",
"4X c #DB9351",
"5X c #D8985B",
"6X c #D08E4F",
"7X c #E79648",
"8X c #E69B56",
"9X c #F19A51",
"0X c #EBA25A",
"qX c #F5A557",
"wX c #C89566",
"eX c #D69B67",
"rX c #C79A76",
"tX c #CA936D",
"yX c #ED9E67",
"uX c #DCA26A",
"iX c #DBA373",
"pX c #D7A576",
"aX c #D7AD78",
"sX c #EAA363",
"dX c #E7A668",
"fX c #F6AB68",
"gX c #F9B26C",
"hX c #E5A977",
"jX c #F7B577",
"kX c #EDB176",
"lX c #D5A059",
"zX c #B99B8A",
"xX c #B6A08B",
"cX c #DAB28D",
"vX c #D0AC8E",
"bX c #E6B487",
"nX c #FABA88",
"mX c #E8BB95",
"MX c #F4BC95",
"NX c #EBAD86",
"BX c #C39A81",
"VX c #EAC399",
"CX c #F8C697",
"ZX c #F8C58E",
"AX c #E6C5A7",
"SX c #F6C9A6",
"DX c #FDD4A8",
"FX c #FCCCB7",
"GX c #FED7B7",
"HX c #EED3A2",
"JX c #FFE4BB",
"KX c #FBDBC6",
"LX c #FDE3CA",
"PX c #FEE9D9",
/* pixels */
"                                                              L > : > >                                                         ",
"                                                : : L L o p p o a a 5 s a # # L > > >                                           ",
"                                              : # # p s 3 4 u x Z B q r r 0 s a O d : , <                                       ",
"                                        a X d f c B V ) SXLXGXDXhX5X4X7X7XfXZXAXcXO.T X 7 z , U                                 ",
"                                    U J 7 8 n F *.=.g.g.3XuX5X5X,XXXXX+X$X4XsXCXDXSXcX`.{ o $ > >                               ",
"                                - J p w _ =.x.D.!..X@X@Xe.r.0.5.5.5.6.2.6.V.0.F.H.6XsXsX8X5X[.n a : -                           ",
"                                p o Y / 1.V.W.XX+X^.#X#XZ.d.=._ _ ( ^ ! &.:.1.2.6.D.J..XXX8XdX]. .5 o                           ",
"                            - # o.>XwXZ.#X&XXXI.~ A b h 8 z a d a a 5 s g f f c C ~ &.9.V./.#XnXCX{.s.d d                       ",
"                          $ d a rXSXL.J.*X7Xo.Q q 6 z t 7 7 Q E ^ E R K d s 8 f s y c u.d.0.J.<XdXhXpXc 7 -                     ",
"                      U z l '.AX;XD.9X4XQ 7 B N d - <.Z.*.Z Z i.w.9.*.3 V m.i.6 f Y c X 8 S _ g.Z.<X4XiX[.k #                   ",
"                    > L p m mXbXH.1XF.~ $ k 4.| P e t..XI.p.4 Z q.u.H v 6.D.g.C j | i.i x f b ! >.W.+XgXeXk.s : >               ",
"                  L l 0 ].NX[.D.F./ - d >.D.A 3 >.^.4X@X+X#Xa.v . 5 h L.~.W.,X-X_.r ! b.W 7 6 9 w *.f.OX<XsX=Xx z >             ",
"                > J 8 R pXbXD.W.Q 4 f 8 ) a.8 0 2XcXbX1X.X+XG.c.I v ` ^.<X9XgXAXAXa 8 Y c n D s 8 m [ V.Q.1XdXY s : <           ",
"                5 0 1.=XaXJ.D.Y 4 E 7.V.N k [ =XJXDX7X#X$X+X$X#X(.XX(././.#X#X.X~.M.v x W V.0.=.n a 8 } g.r.!.hXk.L %           ",
"              @ f C K.VX,XH./ s w ` e.W.%.$.I.5XhXwXm.b.M.M.a.a.i.| ....) s.h.K.P.P.C.4.3.A.q.f.F a j Z *.q.G.dXwX. L           ",
"            # g A a.nX-XY.c.$ s S B..X.X$X1Xg.! 9 x y v  . .W } ..k.n.n.k.k.o.b 8 | C.8X0Xc.q.D.p.s I s h p.V.S.eXl.p ]         ",
"            d 8 &.L.eXA.D.N P s ^ J.&X@X/.M.u 9 o.'.;XwXuX5Xm.a.K.[.5XeX5XhXvX{.X.s C eXCX-X0.Y.g.s b n s | z.5XdXtX} P ,       ",
"        ; ; d Z 9.5.H..XI p N c h.OX~.(.&.8 ( -X7X*X@X%X8X(.C f r N d.7X7X5XyXDXHX].u Q `.uXF.t.J.h 5 / C h ~ rXFX<XhXX :       ",
"        - - x ^ z.w.Q.sXd q { s V.~.~.H.v w -XcXL./.(.$X%XoXC Y s r 3.1X.X&X!.[.eXVX=X7 I ).Y.2.e.r % p./ 7 n F.mX-XqXb z >     ",
"        # a A d.w.S.fX| a V I 8 $X7Xw.f.5 I rX'.j r X c 9.H.G f t $.S.R.M.q 0 p $ xXGX{.@ Q.1XuXJ.^ X p.p.w w ;.=XkX+X;Xm >     ",
"      * d f ~ g.w.S.2X0 l -.l x 7XqXV.,.5 e M. .b { I j A p.,.^ ! c.J.-.u 6 b P P :XDX3Xd C.,XCXeX..4 i.f.c 9 *.M.CX,XpXX.-     ",
"      = s c 1.B.F.6Xr 5 ) 9.7 ( 7X7XB.) 5 Z ;.g.N B q u K o <.t.J.A.g.a c n w B E 3XpX8XQ -.G.MXKXa.e ) 1.^ x D $.mXVXyXwX$ >   ",
"    * = s C >.B./.hX5 z 1.w.9 ,.7X7XB.` 3 M ;.1.d.1.! i f g 1.Z.w.8.3.x h s 6 1.Z.iXmXtXb =.@XhXKXM.q ( <.) m f ;.:XDX5XpXd -   ",
"    & $ c A L.w.uX{.7 b U.C.f 3.8XgXq.$.J K V =.wXb.9.B.r.Y.q.A.w.L.C.5.%.a.q.~.,XgXZX'.c M.0XnXLXD.l W f.1.^ k Q 2.pXeXhXs -   ",
"    = J c ^ eXI.eX+.t A U.9.9 3.8XnXOX<.g 6 v W CX].6.Z.Y.~.` ..-.1.z.r.F.A.G.4XNXkX:Xm 4 ].fXMXLXw.l R c.;.) 7 v 4.=XdXhXs #   ",
"    @ d B M.rXL.-XK ' i.c.( S C.1XMXnX4Xh.y.7 o [ y.3.9.R.H.w c c x w oX/.^.<XGXPXk.1 [ p.<XjXCXKX~.T N C.1.h.s y :.c.8XdXx $   ",
"    $ a Q M.=XC.`.g v w v 9 Q 9.8XCXZXgX|.}.i e 8 S 1.z.S.D.B A [ Y a [.XX@XsXKXAX6 6 j.x.8XfXZXKXE.v Z b.p.s.l 8 3.2.<XsXc d   ",
"  & # a ! *.B.H.| p v ! ....H..XkXCX0XqXnXjX!.x.s d ! >.8.V.m k s 6 q .X%X4XMXBXH S d.r.@X7X<XfXCX@Xi.a x 9 3 o x <.c.H.8X} d   ",
"  = @ b V b.V.(.[ s g.U.~.XX#XXXsXnX%X$XgXkXsXW.N d Z i.6.B.2.&.V B f.Q.%XyXnXW j <.A.(.8X(.P.yXnX@XY.x f x x 7 5 1.%.,XdXk.a   ",
"    $ y l.rXD.,Xc k B Y B G c.G.8X9Xq./ v.$XjX0X=.G 6 c C A Z N Q Q N q k e 8 s Y S.e.7X].2 ! dXnXP.j.! Z B A f 7 =.<.eXnXk.a   ",
"    O w l.vXP.6X8 a B f t X M ..fXyX3.F R G.gXgXz.-.5 f 8 f X k X l . J O k 6 } j.!.Y.|./ J F fXCXb.F g 8 k k d p =.1.iXCXk.d   ",
"    # y b.vX,X6X8 l h.7.L.M.r r FXfX:.K T ( %X7XP.&.h n C  .e h.f.3XB i.f a. .p.0.!.H.C 8 b N kXFXX.6 G ~ ~ G k 8 =.3.pXCXn.z   ",
"    + r a.vX,X6Xk a N k M I d Y KXuX:.K t c .X*XP.` x v A ..w `.u.pXq n.f M.X. .9.!.g.X X.S B nXFXn.b f j w s a 5 ,.1.pXZXn.a   ",
"    a r X.:X,X#X# m s.f.K.P.,X0XCX&Xa.a m.k.E 0.e.g.d K A i.s ,.Y  Xq i.1 o.I / V.=.h u.hX9 A nXgX|.V.1.p.s.s.x 3 =.x.6XdXn.5   ",
"    p 6 } ;XtX<XX G H.!.8XfXfXgXCX$Xs.k K.3Xq y.H.9.k J c | 0 ~ f C.r ( 0 t a f.U.e 4 2XCXp [ nX0X~.S.V.V.x.z.9 5 ;.7.|.0XX.a   ",
"    d h G `.eX<X: g z y 6 u g.#XSX8XC.Z | eX{.b *.A.0.,.X d 5 v - Y . w % 5.r.a.Q y g.ZXSXg n.fX@Xe.%.0 r h f 5 c 5.w.8XhX[ z   ",
"    J s D h.hX<XU O P Q f 6 ! L.ZXsXD.! x m.kX{.0 *.7.q.Z S t 8 $ j 0 ~ ..E.U.S 7 ( |.GXvX9 K.0X@XZ.E 5 8 s d f D 2.V.nXbXm d   ",
"    - o D &.cX6X .e d.Y.,XP.w ' 8X7XE.3.K b V.5X>X+.w E Z.A.9.f.4.6.w.T.U.! b x *.wXDXxX] i.uX<XdX'.3 } f./ Z u ) 6.B.DXVXh :   ",
"      # A ~ cX5Xn.s s.F.!.%Xu x $X$X~.8.K a &.v.pXcXo.8 _ 1.A.S.Y.~.E.V._ s l `.=XJXKX] f ].jX4XCX_.4 =.z.W h N $.z.z.DXcXa L   ",
"      # c G rXMXpX{ F 1.G.$X*.w  XkXiXY.z.[ 9 c p.Z.yXhX_.I y N i.) F 6 I BXSXKXAX@.x N v.jXjXnXKXi j B.f.e a *.:.5.,XCXrXa >   ",
"      = x A =XCXNXM.h _ S.!.h.v L.VXGX3Xw.2.u 9 F ^ I.6XuX{.m a x e 0 { >XLXLX:X@.5 0 Z.oXgXkXDXGX3 K V.>.a s =.3.6.|.MX;Xd <   ",
"        f n s.vXwXiXd y w.U.|.( ` -XJXaXe.r.B.h.c 5 m W ) &.x k A &.2.oXpXX.l 9 N Z.H.7X0XjXbXDX3Xf t >.B f D 1.z.H.,XpX} L <   ",
"        z n ) :X3XhXd 9 J.Y.,X| R t.mXlXe.P.6.<.y.A d p f K t R v.D./.U.E 1 o s.L.XX&XqXgXgXZXHX XJ t ,.0 P D 6.V.(.4XeXc :     ",
"        # d ^ ) VX;X}.a _ B.Q.H.X R G.Y.Y.A.W y e W 5 1 G p.P.oXl.D c 3 H 0 A y.q B 3.$X<XdXbXP.,.x  .e 6 ^ =.5.Z.CXDXX.d L     ",
"        = d F } bXpXpX' H p.H..X9 q E.~.e.c.x t 5 l x ! D.(.L.a.K 2 6 Q M.#.e d f 4 q .XT.oX XV.! b  .9 w y.d.3.[.DXZXI $       ",
"          - 9 S j.eXK.rX8 h 6.G.( X C.G.B.g.4 m s.q | l.G u f I >.E i K S >.v W Z.I 3 J.t.e.Y.g.Y 7 v c D 1.6.[.bXDX{.d >       ",
"            a x G }.1.2XW 8 &.B.1.z p.x.>.E 5 u K.j.c C 0 e | j.A.q.:.c 9 t 0 p.2.7 9 ) >.G.e.1.v a t Z _ 1.2.pXSXvXk.# <       ",
"            # # F G g.4.C.^ 7 ' 2.) g b q E o.x ~ c.s p g.7.U..XJ.L.,Xr.B.M d m x 8 o.Y q 9.9.( x s c $.4.q.I.LXFX .6 <         ",
"            = # s S =.1.B.g.h p *.i.o : u h.{ h m { 8 w 7.r.@X+X! D K..XA.A t a t b y r r c.3.C s c D :.3.A.3XLXBX7 a <         ",
"              & $ s A ~ <.7.1.~ s y 7 k S 9 E f._ i Z ( r.R.b.0 I f 6 J.Y.5.1.y.| 9 x X.n.D l s n -.-.6.w.eXDX_.l # U           ",
"                + p c ^ 1.3.P.h.y y - K c.Z.v T :.w.y.>.S.S.Y g N.R 1 M.E.S.V.) C e s m [ 4 p F } 1.3.w.H.kXmXP # P <           ",
"                  = a s ^ ,.wXmXL.=.m o c 1 I Y e S 1.V.%.E h i.9.Z.u.8 :.D.f.7 # x h s h F D >.6.x.D.$XqX[.W : :               ",
"                    # 5 F A M.rXiX[.i.Q s z S Q 7 X *.B.$.q Q f.#.j.l.4 u i.A 5 : 6 7 h y *.-.6.9.S.H.qX0Xy.3 P >               ",
"                    * @ a x ~ &.].pX3XL.B.1.B i 7 l s l 7 a M y 3 9 h g 8 x y Z Z R _ 1.z.6.9.S.W.8X0XK.D # > <                 ",
"                      @ # a Z G -.m.kXiXK.F.2.:.| F v v n v v u y y c c N N V _ _ p.2.r.r.I.L.$X7X8X2Xv 5 > <                   ",
"                        = + s l G | *.M.hXbXC.q.e.Y.~.Y.@X@XXX/.XX(./.H.H.A.J.H.E.~.^.5XhXVXnX8X(.F 6 - , <                     ",
"                          * # d c Z ) y.v.=XhX,Xw.w.r.e.!.!..X.X+X+X+X(.+X~.E.~.~.1XdXSXSXhX6Xv.} a $ < <                       ",
"                            * * # d x u ! E a.K.pXbX7.z.0.V.8.8.A.S.H.R.S.G.J.J.oXuX,XZ.B.) x a # ; ; <                         ",
"                                + $ 7 t u ! ! ) M.].6.z.6.7.B.V.v.v.C.I.0.0.9.q.D.K.C.>./ w 8 # @ , <                           ",
"                                    = @ # o 7 8 v u G ! =.p.b.{.VXAXcX{.h.) / ( ^ c 8 o # @ + ; <                               ",
"                                    & & = - # O 5 5 w e C Z A ! X.X. .D } c c w 6 7 d - ; * ;                                   ",
"                                              & ; ; + # # # a s d d a a # # # = = = * *                                         ",
"                                                    & & = = & @ = = = = & = & & & &                                             ",
"                                                                                                                                "
};
