/* XPM */
static char *result[] = {
/* columns rows colors chars-per-pixel */
"64 64 248 2 ",
"   c #1B0907",
".  c #0D0C1C",
"X  c #0C0717",
"o  c #130C1C",
"O  c #1A0D1B",
"+  c #170D16",
"@  c #0D121E",
"#  c #15121D",
"$  c #1B121E",
"%  c #1D1314",
"&  c #1A1207",
"*  c #270D05",
"=  c #340C04",
"-  c #281609",
";  c #351607",
":  c #250D17",
">  c #231415",
",  c #2B1415",
"<  c #23131D",
"1  c #29181A",
"2  c #361B17",
"3  c #360E17",
"4  c #3A2408",
"5  c #39251A",
"6  c #2F2818",
"7  c #140E23",
"8  c #1A0E23",
"9  c #190C28",
"0  c #0E1422",
"q  c #0F1B29",
"w  c #151423",
"e  c #1B1423",
"r  c #151925",
"t  c #1B1925",
"y  c #15132A",
"u  c #1C142A",
"i  c #161B2B",
"p  c #1C1B2B",
"a  c #1E1D31",
"s  c #1B1633",
"d  c #0D0F20",
"f  c #230D24",
"g  c #221525",
"h  c #221A26",
"j  c #22152B",
"k  c #231A2C",
"l  c #2A1C2D",
"z  c #2A1724",
"x  c #341A27",
"c  c #221633",
"v  c #251B32",
"b  c #2A1C34",
"n  c #2C1C3A",
"m  c #271739",
"M  c #331C39",
"N  c #270D30",
"B  c #1E222D",
"V  c #1D2333",
"C  c #1F2933",
"Z  c #22212E",
"A  c #2B232B",
"S  c #382728",
"D  c #242332",
"F  c #2B2335",
"G  c #2B2A36",
"H  c #2D233A",
"J  c #252B3A",
"K  c #2C2C3B",
"L  c #252738",
"P  c #32243D",
"I  c #322C3D",
"U  c #39293B",
"Y  c #2C313D",
"T  c #2A353D",
"R  c #36323C",
"E  c #451C05",
"W  c #441D1A",
"Q  c #472507",
"!  c #472919",
"~  c #4B3118",
"^  c #57351A",
"/  c #523110",
"(  c #663819",
")  c #62320E",
"_  c #462926",
"`  c #532924",
"'  c #4A3526",
"]  c #573726",
"[  c #483735",
"{  c #4F3833",
"}  c #663B28",
"|  c #643433",
" . c #6D4514",
".. c #574739",
"X. c #564733",
"o. c #6A4726",
"O. c #794B27",
"+. c #674D3B",
"@. c #6C5335",
"#. c #765839",
"$. c #765131",
"%. c #4D481E",
"&. c #341A45",
"*. c #2B1441",
"=. c #352542",
"-. c #342C43",
";. c #3B2B44",
":. c #3D2C4B",
">. c #392747",
",. c #2D3342",
"<. c #2E3C47",
"1. c #333343",
"2. c #343A45",
"3. c #353649",
"4. c #3C344C",
"5. c #353B4A",
"6. c #3B3C4C",
"7. c #3B3745",
"8. c #3E3752",
"9. c #352C4A",
"0. c #422E4D",
"q. c #402E46",
"w. c #413D4C",
"e. c #44354B",
"r. c #432C53",
"t. c #482E54",
"y. c #443254",
"u. c #443D53",
"i. c #4B325B",
"p. c #493858",
"a. c #55395F",
"s. c #4B3961",
"d. c #563A6A",
"f. c #57386C",
"g. c #603C6A",
"h. c #3C424D",
"j. c #384148",
"k. c #3D4351",
"l. c #364656",
"z. c #43434D",
"x. c #444453",
"c. c #444955",
"v. c #4B4C5C",
"b. c #484859",
"n. c #534C5A",
"m. c #4C525D",
"M. c #46525C",
"N. c #584E50",
"B. c #695746",
"V. c #755949",
"C. c #6E514F",
"Z. c #7A6349",
"A. c #786952",
"S. c #4D4D62",
"D. c #564968",
"F. c #4D5262",
"G. c #475461",
"H. c #535464",
"J. c #5B5A6C",
"K. c #565968",
"L. c #5D4E74",
"P. c #605B6B",
"I. c #664C77",
"U. c #645575",
"Y. c #5B646D",
"T. c #5B6472",
"R. c #666C7B",
"E. c #6B6C7C",
"W. c #646776",
"Q. c #6A727D",
"!. c #756D75",
"~. c #855836",
"^. c #89542E",
"/. c #926937",
"(. c #A87139",
"). c #876846",
"_. c #866757",
"`. c #93774B",
"'. c #A57957",
"]. c #A97547",
"[. c #8C7267",
"{. c #926058",
"}. c #B28959",
"|. c #9A8570",
" X c #A89677",
".X c #B29363",
"XX c #928156",
"oX c #C58646",
"OX c #D1B079",
"+X c #D9A874",
"@X c #FFCA7D",
"#X c #6C4886",
"$X c #6D5683",
"%X c #745484",
"&X c #77558F",
"*X c #756C83",
"=X c #6E7382",
"-X c #6C7886",
";X c #737484",
":X c #757C8B",
">X c #7A7D8D",
",X c #737985",
"<X c #7E6593",
"1X c #727488",
"2X c #877999",
"3X c #8B6F97",
"4X c #9578AB",
"5X c #9B76B5",
"6X c #8E6FA6",
"7X c #A47CC3",
"8X c #7A838E",
"9X c #7B8796",
"0X c #878899",
"qX c #89929C",
"wX c #93839E",
"eX c #B09188",
"rX c #8D97A5",
"tX c #959AA8",
"yX c #9592AA",
"uX c #A692B8",
"iX c #98A2AD",
"pX c #9CA7B4",
"aX c #A5A9B9",
"sX c #A8AEB7",
"dX c #BDAC9C",
"fX c #D1B494",
"gX c #CCB9AB",
"hX c #E2BA87",
"jX c #EFC886",
"kX c #E5D2AC",
"lX c #BE9AD7",
"zX c #B190CA",
"xX c #ACB5C6",
"cX c #B5B8CA",
"vX c #B2ABC7",
"bX c #C6ACDA",
"nX c #D4B1EB",
"mX c #D6AEEA",
"MX c #BCC7D5",
"NX c #B7C2CE",
"BX c #C3C7D8",
"VX c #CDD2E4",
"CX c #EAC8FD",
"ZX c #EBD5FC",
"AX c #DDECF8",
"SX c #E3F1FB",
"DX c #E0D3C2",
"FX c None",
/* pixels */
"FXFXFXFXFXFXFXFXFXFXFXFXFXFXw o e e u O O e FXFXFXFXFXFXFXFXFXFXFXFXFXFXFXFXFXFXFXFXFXFXFXFXFXFXFXFXFXFXFXFXFXFXFXFXFXFXFXFXFXFX",
"FXFXFXFXFXFXFXFXFXFXFXFX# t I x.D F *Xp.7 8 j o o h G A FXFXFXFXFXFXFXFXFXFXFXFXFXFXFXFXFXFXFXFXFXFXFXFXFXFXFXFXFXFXFXFXFXFXFXFX",
"FXFXFXFXFXFXFXFXFXFXFX# # L G G 0XD.j p.4Xq.f O 8 $ o e $ t e $ t $ FXFXFXFXFXFXFXFXFXFXFXFXFXFXFXFXFXFXFXFXFXFXFXFXFXFXFXFXFXFX",
"FXFXFXFXFXFXFXFXFXFX$ Z t t p p e o u.H.2XVXP.9 j b w.I z.X K E.c.o D w e t t FXFXFXFXFXFXFXFXFXFXFXFXFXFXFXFXFXFXFXFXFXFXFXFXFX",
"FXFXFXFXFXFXFXFXFX$ t Z G R R R h.m.H.z.v 9 K w e v v r . 1.0XY K E.5.w L J F a y e o FXFXFXFXFXFXFXFXFXFXFXFXFXFXFXFXFXFXFXFXFX",
"FXFXFXFXFXFXFXFXFX# $ t # t $ p B Y z.c.J.P.H.x.I i t # @ p p v.:Xi b.0X;XW.J.D.u.-.u 8 8 O u O FXFXFXFXFXFXFXFXFXFXFXFXFXFXFXFX",
"FXFXFXFXFXFXFXFXFXFXp I K 7.h.Y Z . w t t Z Z K 2.m.v.x.b.7.,.w r . k . j 8.L.U.2XzXvXuX2XL.m u 8 8 8 7 FXFXFXFXFXFXFXFXFXFXFXFX",
"FXFXFXFXFXFXFXFXFXFX$ F . B t t p F I I K Z p t w # e r k J 2.x.b.W.K.7.b u u s c n >.d.1XbXZXVXvXU.8 8 i K K e FXFXFXFXFXFXFXFX",
"FXFXFXFXFXFXFXFXFXFXFXD D 2.H.L k g 8 8 e e k G D D D A p i r t t e p K F.,XrXrX0XT.5.a t 9 d *.D.-.w 2.8XcX=XJ p 7 FXFXFXFXFXFX",
"FXFXFXFXFXFXFXFXFXFXFX# R w F.H.p =.c b k j O w $ e r e B A Z F G x.H.h.D i 0 i J S.1XcXcXsXaXJ.-.p t B ,.q T T.rXaX6.d FXFXFXFX",
"FXFXFXFXFXFXFXFXFXFXFXFXK K ,.0Xt H p.0.=.l j 8 $ w e e # e o o w t p K k.H.J.K.x.K y i C 5.H.R.rXMXqX@ # x.rXMXrX9XpXW.X FXFXFX",
"FXFXFXFXFXFXFXFXFXFXFXFXFXK.@ R.H.7 r.y.=.=.j 8 8 $ e h t e e w e w w # # w t p K x.v.K.h.D r r r 6.B Q.Y 0XT.s q 0 i :X0X. FXFX",
"FXFXFXFXFXFXFXFXFXFXFXFXFX1.J B qXv =.a.:.P b u w e g k h k h h e h e t $ t t $ e 7 # w p 1.w.H.v.1.i ;X=Xd y s n 6.>Xw vXF.FXFX",
"FXFXFXFXFXFXFXFXFXFXFXFXFXFXn.r z.W.s y.:.n P k e w e j j k k l k h k h h e $ e t # $ o e # O X u E.w 5.pXq rX9 uXn S.1XV sXw FX",
"FXFXFXFXFXFXFXFXFXFXFXFXFXFXD G B ,Xk P m P P j 8 w g O j j b b b b k e h k h g t k p w e e w g e -.w.D 9X,.0Xy.U.4.7 J.J >Xx.r ",
"FXFXFXFXFXFXFXFXFXFXFXFXFXFXFXR 0 Y z.k y.=.b 8 e O j b b b e u j l H b l g w k k k e k t $ w e u i n.# T.T.,.pXy $XvXb k I sXo ",
"FXFXFXFXFXFXFXFXFXFXFXFXFXFXFXk G r R.I b =.8 l $ e b M =.=.P =.H b k g e g g k k k e h g e 8 w w # 1.r 2.tXw y S.u D.p.X o sXp ",
"FXFXFXFXFXFXFXFXFXFXFXFXFXFXFXFX6.0 1.E.u -.b u 8 w b =.>.=.;.P =.=.P H F b j j g k A j h g w $ $ $ J K J 8Xk.,.v 0XH.v 4.v.K.x.",
"FXFXFXFXFXFXFXFXFXFXFXFXFXFXFXFXt 6.w E.6.u u j e 8 j M =.=.P =.>.P P j b j b j b v b p e $ w O $ # # F.r m.rX. -.v 0XI H.K.L 9X",
"FXFXFXFXFXFXFXFXFXFXFXFXFXFXFXFXFX6.k J ,X@ F j $ e k e u c H U ;.=.=.F P n j k k v k h g j k O $ $ e c.,.7.rXY F w p 0 a y B bX",
"FXFXFXFXFXFXFXFXFXFXFXFXFXFXFXFXFXk z.i h.z.e j j e F H b b j j u c b n b b j u e k l k k g e e $ e e D 8Xy R.0X3.-.qXi v.p.s MX",
"FXFXFXFXFXFXFXFXFXFXFXFXFXFXFXFXFXFX2.i e R f O O e c H P P P P P n c j e u j g j k k l j j k w $ $ e . rXV h.cXi 9 aXa v cXu cX",
"FXFXFXFXFXFXFXFXFXFXFXFXFXFXFXFXFXFXFXk N.2 2 ,   < O j j j k H P P P =.P H v j j k k k l l k e $ $ $ e F rX0 9XR.p tXF n E.y vX",
"FXFXFXFXFXFXFXFXFXFXFXFXFXFXFXFXFX< S & B.[.' _.' B._ ..1 O Z v n P P P b =.=.P P H H b l 8 w k $ + e $ 0 tXL M.MX0 =Xn.u F 9 cX",
"FXFXFXFXFXFXFXFXFXFXFXFXFXFXA % > { S X. X.X* '.; Q }.+X.X%.1 . o g F b F j D M b n j l j b j g 8 $ $ $ o z.Q.C xXl.p E.b u.u sX",
"FXFXFXFXFXFXFXFXFXFXt e > > %   C.{ |.   X- _ ^.jX(./ (.oXXXeXX.+ e % O g $ k l $ h v k l F k t e e e w e e sX0 T.pX. H.k K u >X",
"FXFXFXFXFXFXFXG x z n 9 h O S ' B., 5 6 `.kX4 }  .(. .Q O.4 6 gX1 $ % 1 1 [ O < : : 8 j k k k h $ t w w w w Q.M.<.VXC 3.k 3.s x.",
"FXFXFXh h z z S : x M x S % 1 - S ' XXO._ V.; ; XXQ /.) /.#.& B.[ < ..|.6 iXA x _ V.; f e e Z k $ h e e # o J pX0 9X8XV p b.-.G ",
"# # t D j < , ; +.2 A.2 5 C.- gX~ Z.}.].' = {.).@.Z.= | ^.E _ ] 3 3 * 3 1 & A S ! ] ~.: w j 7 e $ # $ e t # r aXC <.NXp p L >X7 ",
"r G 6.7.< [ ..2 ! ~ ~ ^ [ * , _.' ! ~ ; x _ = `.Q ! W C.( '.@.].E } 4Xg.N.+ n.2 fX; ].) : $ p Z t t # # # h e b.:Xa 0X1.t K 0XX ",
"k e e O g < 2 _ _ 2 | W $.'.! *   2 ' , : {.` / 2 $.W = } o.] ^.E ` ~.W  X3 ' X.@.' ( `.* % < u e e w $ e # # w xXy H.T.e 0X3.FX",
"D e j U b g 8 O z z > 5 O.(.~.3 ..S +.= 3 C.| 2 ` ^.].o..X]./ ^.].} | fX#./ `.5 - dX; $.' gX1 + e 8 e $ t t e . 0X5.G 0Xa qXFXFX",
"D w w k b ;.U j g 8 8 O 3 S 1 % > E +X~.3 = = }.o.5 - 5 @. .^.O.( ( (. .Q O.hXXXA.Z.X.1 ; 4  XA.o r $ + w e w e I qX@ W.F.e FXFX",
"D . k ;.8 n e.j b b k g O g h W.K.1 X.! 2 V.W ] ^ o.Z.A 6 ).$.= / E Q ^.jX.X%.OX* [ & ' 5 .XkX6 z.[ h f A $ w w D BXw x.K FXFXFX",
"k w K K H.8 P j n k j p k u w 0 Y.z.% & $ S , _ - ).#. XDX2 > Q oX^.E hX).6 5 ; 4 S C././.$.@.6 1 1 [...> A e I 3.tXD D FXFXFXFX",
"D p p l 7.b.j n P b k 7 d e o M.v.I I 8 < j 8 : S , > fXA.S [.; (.@X~.* %.X.6 4 Z.! 5 4 %.4 Q 5 ..S ` }._ x k D L a K FXFXFXFXFX",
"D k I t K 7.I j b g o # D I t F.aX-.J.j P m 7 9 < - S `._ x V.= ^.oX+X; ' X.P.; ! - ! @.V.'.#.A.& - } } , z O w -.k.=XFXFXFXFXFX",
"F p x.e D I I e 8 e Z T k.H.@ M.iX. 3.9 :.8.j :.f O g z , x '.| ;  .~.2 %.X.V.E _.; @.OX}.) | 2 ' _ S : f l I j 6.4.*XFXFXFXFXFX",
"F D K p 7 x.G B t 5.m.R.>XK.r M.qXw u E.8 l A p.M 2Xa.N + _ 2 W 5 1   - Q = }.).* { _ ] E : l l 8 N q.p.=.n P b v 6.1XFXFXFXFXFX",
"D k H k a F c.r x.:XF.D 9 9 t M.qXp 4.H P.P.8 :.&.#X7XzXM B.S 2 b s u 3 #.^.O./ C.3 x e.q.=.m N s.f.i.i.0.m P b.y 6.:XFXFXFXFXFX",
"Z p b b M g F r b.p j g b b w c.8X# H v.p b.aXk >.s.#XzX6Xj x t.t.<Xi.9 1 2 , < O M t.*.&.>.U.L.5X5XL.s.v u.J.L T.8.;XFXFXFXFXFX",
"D e l P ;.j # t 7 e P H ;.b o m.Q.k.K 7 D G I cXH b d.f.I.[ gX< =.6XbXm : $ g C.[ j 2X5XzXI.nXCXCX7Xf.n S.F.6.cX5.6.;XFXFXFXFXFX",
"D e v F =.j e D D j H =.;.b 7 x.R.Y.,.a s a I L cX1.b t.3XN 3 z :.:.I.N l k + 6 > n.aXuXbXCXCXCXlX%X*.3.1XG.VXZ L 3.1XFXFXFXFXFX",
"Z e D H b l w I u.7 w t k b o c.T.W.6.-.P u k j.Z tXb y.3Xx _.{ 7 m j $ $ [ !.G 0Xk S.*X>.s :.$X3Xt.v k.,.BXK w 3.3.1XFXFXFXFXFX",
"Z p b b >.l k F n.9 k -.D y @ k.,XJ.4.0.p.M j p 6.F ;XP M X B.5 g b U 1 6 > 1 j.sXe 2.k.k.,.L 9 N u ,.y xXH v 8 4.4.*XFXFXFXFXFX",
"e t p w j F e G u w v F qXiXp ,.:XJ.:.:.i.0.b 8 ,.-.p.k 7 H < 2 e.K.A [  XG b.c.cXa v.e.,XNXAXVXK.d B :X3.>.;.j 8.3.E.FXFXFXFXFX",
"k r p 1.k e k G e r L t u D r Y 0XK.9.:.I.i.&.k e 7.w w G P.5 |.> R X.< S z.h.M.xXy &.M n y C tXVX3.C =Xc u.>.8 u.,.W.FXFXFXFXFX",
"B 7.I D Z h Z e t v u K.D S.,.. x.v.8.:.%Xi.m U h p p B K.F : g 1 +.+.g $ H.j.l.xX:.$Xf.t.n s r W.F.,.s >.0.y.s k.3.R.FXFXFXFXFX",
"r B Y j.h.G @ i i P.K.K y S.>XE.t u.P y.d.r.M 0.b u r w L c &.&.i.n j l t G.h.k.vXf.5X6Xf.*.=.H p p p -.g.s.:.s b.5.=XFXFXFXFXFX",
"FX$ t h K A Z t K t >X,.W.r J M.u I b 0.t.d.n 0.P j G c.,.s 4X$X%Xi.q.c B K.j.2.vXf.7X6X3Xm 8.u b.y 9.*X4Xf.>.9 b.k.E.FXFXFXFXFX",
"FXFXFX$ e t e r r r tXI tXk.i p p h g ;.>.0.N 0.>.e Y m.3.m zX&X5Xg.i.u r K.j.j.vXD.mX7X6X*.y.t H.a *X2XuXd.y.s u.k.=XFXFXFXFXFX",
"FXFXFXFXFXFXw $ F Y.6.p k V rXVX4.w k ;.n ;.M 0.>.j G c.9.*.lX#X5X<Xi.j t Y.T k.xXs.CXmXlX*.:.u M.s yX2X4Xi.:.c D S.=XFXFXFXFXFX",
"FXFXFXFXFX$ $ D z.Z i i L Y.NXT.3.-.7 9 v b j =.M u Y c.7.&.lX#X#X$X:.c r Y.T j.iXD.ZXCXmX&.r.8 F.-.yX2XL.:.9.s u w.P.FXFXFXFXFX",
"FXFXFXFXFX$ t t p Z Z Z M.aX-X3.v.o p u d u O u F u R z.4.n 5Xf.f.>.:.u # Y.T l.yXs.nXlXzX&.r.9 K.3.wX8.*.s S.G.<.C ,.FXFXFXFXFX",
"FXFXFXFXFXFX# # Z p t b.0XK.a b.p ;XvXMXJ.y F u 8 w K h.S.c 3X&.r.&.0.j t Y.3.l.iX8.bX&X<X*.:.u K.,.0XV 0XMX:Xj.R.AX=XFXFXFXFXFX",
"FXFXFXFXFXFXFXFXFX# k J B . d d 7.b.d a yXT.w 8 k t K K J.c s.m i.M q.j t K.5.8.pXs.6Xi.i.t.P u 8.K rX3.G.V -XVXSXcX5.FXFXFXFXFX",
"FXFXFXFXFXFXFXFXFXFXFXFXFXFXFX# H.Y w l w ;X7 T.5.r i V 2.p =.M t.M 4.j e m.2.j.pX9.f.:.8.c 7 D p r C j.9XMXSXxXY.i FXFXFXFXFXFX",
"FXFXFXFXFXFXFXFXFXFXFXFXFXFXFX# v.z.$ e o 8 e 5.c.R.j.p 7 u.-.j c H P k t K.2.c.xXL :.=.9 S.pX<.w l.pXNXMXiXl.@ FXFXFXFXFXFXFXFX",
"FXFXFXFXFXFXFXFXFXFXFXFXFXFXFXFXD FXFXFXFXo e t G 5.m.Y.b.k B 7.-.u w h # W.1.h.cX0 a E.BX8XV j.pXpXK.l.<.FXFXFXFXFXFXFXFXFXFXFX",
"FXFXFXFXFXFXFXFXFXFXFXFXFXFXFXFXFXFXFXFXFXFXFX$ # $ Z 2.m.8XQ.T r 1.w.b p 8X,.c.pXL H.k.y G.rX8XY.Y Y FXFXFXFXFXFXFXFXFXFXFXFXFX",
"FXFXFXFXFXFXFXFXFXFXFXFXFXFXFXFXFXFXFXFXFXFXFXFXFXFX# # B T m.-X8XM.r B 0 9X,.F.tX0 p G.rX8XG.1.Z FXFXFXFXFXFXFXFXFXFXFXFXFXFXFX",
"FXFXFXFXFXFXFXFXFXFXFXFXFXFXFXFXFXFXFXFXFXFXFXFXFXFXFXFX. . A j.x.8XiX-X5.0 d y r m.,XR.k.T r FXFXFXFXFXFXFXFXFXFXFXFXFXFXFXFXFX",
"FXFXFXFXFXFXFXFXFXFXFXFXFXFXFXFXFXFXFXFXFXFXFXFXFXFXFXFXFXFXFX# B Y M.Q.iXpXK K Q.E.J B FXFXFXFXFXFXFXFXFXFXFXFXFXFXFXFXFXFXFXFX",
"FXFXFXFXFXFXFXFXFXFXFXFXFXFXFXFXFXFXFXFXFXFXFXFXFXFXFXFXFXFXFXFXFXFX# w C W.k.k w FXFXFXFXFXFXFXFXFXFXFXFXFXFXFXFXFXFXFXFXFXFXFX"
};
