/* XPM */
static char *result[] = {
/* columns rows colors chars-per-pixel */
"64 64 21 1 ",
"  c #2E2E3B",
". c #312F3C",
"X c #2E303E",
"o c #34353F",
"O c #36383F",
"+ c #393A3F",
"@ c #2F3240",
"# c #353642",
"$ c #383742",
"% c #363942",
"& c #393A44",
"* c #363B4A",
"= c #3B3D4A",
"- c #403F4D",
"; c #3A4046",
": c #3E414C",
"> c #3E4353",
", c #41424D",
"< c #424451",
"1 c #434854",
"2 c #4A4953",
/* pixels */
"*%#%#####*#o%%%%%%%#%;=:&%%;$$o%$;%%%%%O@%%;@%%O%%oX%#&&O&&%&%%%",
":%&o%#o#,&%o%##%%%%#%;&*%%o$oo##$#%o%&&%O;%@%O%%@%#%o#&o&o%oOo#&",
"%%%%%O##=%%###%%%##%%%:%#==%####%$#&O&%O%%@;%%%%o:%@%%%oooo&%%=*",
"%=#o%%X:%%O##%%#%%%#%;:%$%%#######%%%##&%%%%@%@;&&o*%O&%#ooo&;&*",
"$%$OOo=$#oo###%#O*&O&;%oOoo$#$######%%%%%%#o##&#oo&oO%@%%%%o#o#&",
"#O$#%%%$O%%oo#%#&&O&#&oo$ooOo###%%###oO#%@@%%#%#%O%X%@O%%%%ooo=%",
"&%%o%%#%%ooo#%@&#*&o%%#ooooO######&O%&&#@%%%%%%%%oo&%@%%%%&%&&$%",
"##%o%%%%&&%o##%%#O%%%%%oooo=#####%&o#&Oo%;@@##%%ooX*%%;o%%%%%$%#",
"o#o###oo;#&o%oO#;$%&o##&%-%########oo$%==###o%oooo%%%%%%%#;#%oo#",
"%oo%%%:,*&%$#o%#%%%$%#%%%##$####%#oo#o##=o==o#@o###%%O%%o&%%%%*X",
"oo%%&%&&:&%%%#%=%%o%o#%#####$##%#oooo####%==#&:&o%%%%o%%%%%%&%&o",
"o#o$%*,;O$+&o##o$o%o&%%O######%#%%%%o##*o&&#o:ooo#%%%%%%%%%O$O*X",
"%#%$&*+ooo%&X%#%####$#%%###@######$%%####ooo@oooo%%%%%%%%###O#*%",
"%&%&%%O&#&XooO*%oo#o$#%%$$$$$%##$###%#%%###X%%o%%ooo%oO##%%oo@Oo",
"*#%%@;%OO&@#&%#oo#o###%$%##$$###%$%$%#&###%%%o%%%#OOoo#%%%&O#O*o",
"%o%%%OoOO@oo%ooo* %&##=%%#$#%$%$###%$*%%*#%%oo%ooo#&o##%%%%o%%+o",
">OO#oOOOOoOoo##&%%;#@%%%##$$#%$$#$%%%##*%####OoOo%%%o#%#&%$=%%*#",
"ooOo;@O@ooOoooooo%%%*%#o#$%#%%#$%$*%#*#%%##oO%o%%#@#%o#%=&%%&$%&",
";%oO;oOOO#ooooooOOo@########%$%#$%##%%#%##ooo#$%%%%%%1%%%%$&%@##",
"%##Oo%%Oooooooo#oo##@#####%#%%#####@*######o#:%o#%%&=$#%#%%%%o:O",
"oOoO%%%%ooo#ooooo#########$%%$##%#.$$@%#####&$#oo%&X&ooo%ooOo&&#",
"o%Oo@%%Oo$&%oooooo######%%&%oo#X%=#o@%$####%ooooX%X%oXoo%ooo&,&#",
"%@oooooo&&####o#oo#o%o##%#%$oo#####.##$##@##ooooo%&%;*Oooooo;Oo%",
"%%%ooOoo&##o##oo&%&%%X%#%ooo%#o###.%$$######o o.%%OO&&%&%%O&*#&#",
"%%%@oOooo$$& #o#&%%o+o%%%Oo###%#o.o$###ooooo#%#%%OXo%$&%%OO%#%%%",
"%@;%Xo%%o%O%##o%=#%o$oO##o%%#o# #o##oo#.ooooo%%%&&&&%o%%OO%o&%oo",
"%%ooo%&&$%%%%**:&%%o%O%oO##o###oXooooo#.oo#@#%%#O#%#%$%oo##%*oo%",
"#O&&o*O%%%%%%%%==%%o%$o#&##%#ooo#ooo#.#.Xo##o%%o#&%%o%%$O%%ooo%%",
"#%%%%o#oO#####%%&%#X#%oooo##oo#o###oooo.o#o#%%##%#%o#%%o#$ooo#=#",
"%%o&%ooo#%#%%###oo#%##X:o%ooo.## #oooo#.%#%o*@%%#&%%ooo#oo##%=%%",
"%&%#%o%Xo%%%#%#%%%%%%%:%%#oooo&####o%o$#&##%####%*%%%$oooo#%%%%%",
"O%%o#%%;o#%%%#o%$%%%%##%%%%%#oo.#@.o#o##%##o##*%%%%%&oO#o$#%%#&%",
"%%%@%%##%%$%#o#######%%o####%@####$oo$%%#%%#o#*%%%$%#ooo&#$##%%%",
"##%%%###o#%##o##X*%%#o#oooo#%##=%#%##%%#%%o#o%%%%*$%##*&%%###%&%",
"%#%o@%$&%oo$%%#.####=##o.=##%#%$%#*####%#ooo%#%%##*$X&;Oo%%o,;$$",
"%o%%%%#oo%%#%%##o#o=ooo#:=%##=o$#@##OOo#%#%#%%%#%####%%&##oo,%&%",
"%#:*&%+%&%###$#. @=####%&%$X #Oooooo%#o##%%%%$$####&#oo#%##=$$#%",
"%O&&&*;&##o&##oo.#%#####&%%&ooooooooo#%#%%%%%$####&$##%%%$o=&%%%",
"#%*%#;&*%%o%o.oo#%###o%%%%%ooo o OO..###o%%O$&$o#%$#=#&+=%;=%%$#",
";##+&+&#ooooo#o#%##%#%%%%#o% oo#O.Ooooooooo%%$o#o ##%#&*%%=%$%%%",
"*%O%#$ooo#oo.$##%%$##$#%#o%+o%&&OOoo#oo%oo#%oo#oX+o%%%%&%OO%%%%%",
"Xoo#ooo#$$ooo###%%#%%###o#&$$%%%ooooo%X#o###oo#o#;Xo%%%%%O%oO%%o",
"&&#oO#o%&oo#.#######o#oo#&#%%&%%o1;&o%&o#%ooo$oo&%&ooO%%Ooooooo%",
"&%%%$$#Ooo$o#ooo#%%###oo$%$%%%##%+++&X%$&&%$#o#oo%&%#%%#ooooo%%%",
"%O%$$$%%$ooo$@@**#$##*#$o$%%$#$##+++&o&=&%# #%$%%oXO%o#oo#X=$%%#",
"%&$$&$OOo#Oo@#=*%##*$%###%oo$#%OoOOOo&&;%%##ooO%%#OOoOoO@%;#$%o#",
"%o%##ooo##o$o-*$%%%$%%##ooooo%$##oooo&*&%%###%%%%OOOOOo%%;&#####",
"*%$oooo%$$o@#$*#$**#$%##oooooo##%*OX%%%%%%##@;:%%OOoO&@%%%%%###*",
"*###ooooo##o=%*#%#*#*##oo#oo$o%%&%##o#%#Xo&oo&&%o+oOo%;O*#o%%@%;",
"%##o%ooo#$o%&%*%%%$#%%oo$&#oooo&$$o#X##%oOO+#&%%$oo+%%ooo#%O%o@*",
"#%*#o#ooo##$$*#=#%%###oo$$$&o#o##O#%oO#%+%oo%%OO$Oo+&+%Oooo%o%%@",
"#%##%%$%%%$%$%%%##@# #@*&=%$ooo#%o#o#o#&+ooO%%#o$$oo%%%&&&&%&*;*",
"####%$%%#%$%####o#.o#&=&-$#$$#o$$ooooo#oOOOO%;#Ooooo&O@&&$%&%&&*",
"##%%%%O%%%%%*##%oo#=2=&%=$##oo#ooo#oo&&oOooo@%&&#oX%%%&&;%*&*%+&",
"#oo#*##%%###%###oo&,>=#%$%o##o#o$O$%#oX%%oO&%%%%o#&%%%o%&%;=%%%%",
"&=#$%o%###%.%@ *#o,:-o$O$%%#oo$oo%%%#&o%###%%@%%o%ooo#%%o#&&%O%%",
"<&&oX;%o###@###%O%&&Ooo$%%$$%#Xoo#%#$%%%%@%%%%%ooOo@##&ooO&&&%o#",
";&*;>O%O@####@#o%#%o%o%%$%%%$#%%$$oo$$%%;@;*;@O#Oo######%Oo%%%Oo",
"XXo;:;%o####@#@#@%&@o#%oOo$%Ooo%%ooo%%%o@@*;%@%@o;%%%###&%%oo%oo",
"#%2>:O%o*o##%@#%%#O%Oo.oo%o#o#o###%%###,;@@;@%#%##%%%##%%%#o#%%o",
";#,<:%Oo@#%%%#%**%%&oo&%%O#ooo%&X@#:%&o**@@@@#o;o%%@##%%&$o&%%o%",
"&&,;;OXo#&####%%%%#@#%###$%%%ooo%%;%%%%@@;*@O##o@%%*#%#%$o#%%o**",
"$%;&;oo##*#####%###%####&##%###&;;&&%;%@@X%%@%%X##%%%%%%%o$;,=&O",
"%%%%;oo#o&##%#%=#######$$%#%#o#**:%%%%%%:%@%%%%%%#&*%%#$%%%&#%#%"
};
