/* XPM */
static char *_34ffa808f914462fce0f1c8cbd34bcduaoZuGYTvIPvcZgR[] = {
/* columns rows colors chars-per-pixel */
"64 64 206 2 ",
"   c None",
".  c #130E0B",
"X  c #15120E",
"o  c #19140E",
"O  c #1A180F",
"+  c #160E1D",
"@  c #170F14",
"#  c #161313",
"$  c #1A1414",
"%  c #1D1915",
"&  c #16131B",
"*  c #1B141C",
"=  c #1C1A1C",
"-  c #17181E",
";  c #221C15",
":  c #221C1D",
">  c #2C1A15",
",  c #361C17",
"<  c #25221D",
"1  c #2C261D",
"2  c #2A2316",
"3  c #33231D",
"4  c #332A1F",
"5  c #170F20",
"6  c #1D1423",
"7  c #1E1922",
"8  c #201623",
"9  c #221B24",
"0  c #22162B",
"q  c #251B2A",
"w  c #291F2E",
"e  c #291D32",
"r  c #242122",
"t  c #2A2425",
"y  c #26212B",
"u  c #2B242D",
"i  c #2D2A2C",
"p  c #2C2824",
"a  c #322D24",
"s  c #322C2C",
"d  c #3B2221",
"f  c #36322C",
"g  c #39332A",
"h  c #393426",
"j  c #2D2433",
"k  c #2D2934",
"l  c #2F233A",
"z  c #302734",
"x  c #332B35",
"c  c #31263A",
"v  c #342C3B",
"b  c #392F3E",
"n  c #3B3333",
"m  c #3E3935",
"M  c #37323B",
"N  c #3A333D",
"B  c #3F383F",
"V  c #363033",
"C  c #481B1A",
"Z  c #51211F",
"A  c #422121",
"S  c #532723",
"D  c #413C36",
"F  c #443D3B",
"G  c #7E2220",
"H  c #44403C",
"J  c #4A443B",
"K  c #474233",
"L  c #352B41",
"P  c #3A2E44",
"I  c #392B49",
"U  c #3C3343",
"Y  c #3C3A44",
"T  c #3E334A",
"R  c #3F394A",
"E  c #373541",
"W  c #3F3250",
"Q  c #403646",
"!  c #423A45",
"~  c #42364C",
"^  c #443B4C",
"/  c #493E4E",
"(  c #433653",
")  c #463B53",
"_  c #493B55",
"`  c #463758",
"'  c #473958",
"]  c #493B5A",
"[  c #483756",
"{  c #513F5F",
"}  c #4D3E60",
"|  c #503F62",
" . c #464240",
".. c #4D4A44",
"X. c #46424D",
"o. c #4A4347",
"O. c #534E42",
"+. c #534E4B",
"@. c #59534C",
"#. c #5C5746",
"$. c #4B4354",
"%. c #4E445A",
"&. c #4F485A",
"*. c #51465C",
"=. c #544B5C",
"-. c #514C56",
";. c #5B5553",
":. c #5E5B53",
">. c #655D4F",
",. c #635E59",
"<. c #696553",
"1. c #6B645C",
"2. c #6B665C",
"3. c #716E5D",
"4. c #534365",
"5. c #564A64",
"6. c #584D65",
"7. c #56466A",
"8. c #59476C",
"9. c #57496A",
"0. c #59496B",
"q. c #594D6A",
"w. c #59486D",
"e. c #58496C",
"r. c #5A496E",
"t. c #5B4A6E",
"y. c #594A6D",
"u. c #5A4C6B",
"i. c #594767",
"p. c #5A5165",
"a. c #5D5269",
"s. c #5C516B",
"d. c #5C4B71",
"f. c #615271",
"g. c #655576",
"h. c #665A72",
"j. c #665779",
"k. c #6A5D79",
"l. c #6A5C7B",
"z. c #6A5E76",
"x. c #6E6A64",
"c. c #6D6A6A",
"v. c #716D62",
"b. c #766D66",
"n. c #76716B",
"m. c #7B766D",
"M. c #797669",
"N. c #7D7A74",
"B. c #797571",
"V. c #8D1E1D",
"C. c #A21C1B",
"Z. c #8A2423",
"A. c #852524",
"S. c #932423",
"D. c #992121",
"F. c #827D6E",
"G. c #847F76",
"H. c #8D816F",
"J. c #868172",
"K. c #85807B",
"L. c #8A867D",
"P. c #8C8973",
"I. c #948D7F",
"U. c #8A8683",
"Y. c #8D8A83",
"T. c #928C85",
"R. c #928E88",
"E. c #999486",
"W. c #9C968B",
"Q. c #9A9589",
"!. c #9F9A91",
"~. c #9A9790",
"^. c #A19C94",
"/. c #AC9E91",
"(. c #ACA695",
"). c #A6A29B",
"_. c #AAA49B",
"`. c #ADA99D",
"'. c #A8A495",
"]. c #B2AC9C",
"[. c #B1A795",
"{. c #B6B39F",
"}. c #B2ADA2",
"|. c #B2AEA9",
" X c #B6B1A4",
".X c #BAB3A3",
"XX c #BAB6AC",
"oX c #BCB8B4",
"OX c #C2BCAC",
"+X c #C4BEB3",
"@X c #CAC4B3",
"#X c #CDCABD",
"$X c #C8C4B7",
"%X c #D1CBB7",
"&X c #D3CCBB",
"*X c #DDCFBC",
"=X c #D5D1BC",
"-X c #DDD2BE",
";X c #E0D3BD",
":X c #D3CDC1",
">X c #DBD4C3",
",X c #DAD5CA",
"<X c #DAD5C6",
"1X c #CDCBC4",
"2X c #E1D4C1",
"3X c #E6DAC7",
/* pixels */
"                                                      6 j R %.6.p.a.q.5.&.R j 6 +                                               ",
"                                                6 u R 6.h.z.z.k.k.l.k.k.z.z.h.a._ k 7                                           ",
"                                            7 u _ s.h.g.f.f.f.f.j.l.j.j.g.f.q.q.u.5.R k 7                                       ",
"                                        6 q R p.g.g.d.d.r.8.w.w.d.d.d.t.t.w.t.t.e.9.9.&.P 6                                     ",
"                                      6 E s.j.f.t.w.r.r.r.w.w.w.w.t.r.w.w.w.w.w.w.w.9.q.%.T j 7                                 ",
"                                    j &.s.q.9.w.w.8.w.r.r.r.w.w.w.t.t.t.r.r.w.w.w.w.9.6.&.) R k 7                               ",
"                                  v 6.s.q.9.w.w.w.t.t.w.w.w.w.w.w.r.w.w.w.w.w.w.w.w.u.9.*.) X.) v 7                             ",
"                                E p.s.9.9.9.d.r.r.w.w.w.w.w.w.w.w.w.w.w.w.w.w.w.w.w.u.w.%.' _ R ) v &                           ",
"                              L p.s.6.9.u.e.w.w.r.8.r.d.r.r.i.r.w.w.w.w.w.w.w.w.w.w.u.4.] ' $.) ) R u #                         ",
"                          % k 5.9.5.u.9.4.d.e.w.r.8.r.d.r.r.r.r.w.w.w.w.w.w.w.w.w.w.7.4.' ) ` ) _ _ E <                         ",
"                          r X.6.7.9.] I I 4.4.4.| | | | 8.8.i.i.r.8.w.w.w.w.w.w.w.w.4.] ] W W ) ) T Y x $                       ",
"                        & N =.5.%.L 0 0 L ' ` ' ] ] [ { | | i.i.8.r.0.8.9.w.w.7.7.4.} ` ' I P _ ) T T E 9                       ",
"                        q $.$.L 0 6 e L ) _ _ _ [ { [ [ [ _ { i.i.9.r.r.w.9.w.w.4.4.` ) ' L c ) _ R ( ^ z *                     ",
"                        k &.) T c P R ) _ _ _ _ [ [ _ [ { [ [ { { 4.4.7.7.4.4.4.} } ` ) _ c l ^ ) ) ) ) N 9                     ",
"                      7 E ) ) ' _ ) / ) _ ) ( ( / _ _ _ [ [ [ [ _ ` [ ' ' ' ' ' ` ' ' ) ) l j ) ) $.) / ^ u $                   ",
"                      9 R R ^ ' ' ) ) / ! Q Q Q Q ~ / / / [ { [ [ [ ' ' ' ' ' ] ' ` _ ) ) k 0 ^ T ) _ ^ _ E *                   ",
"                    - k X.E ~ _ _ ) / F u 8 8 8 8 w z ~ / [ [ [ ] ' ' [ ] ' [ ] ' _ _ / / z w ^ v v _ ) ) ! y &                 ",
"                    & x R T ) _ ) Y z : @ $ ; ; * : 8 8 c ~ [ [ _ ] ' _ ' _ ' [ [ [ _ / ~ 8 w / v q U ) ) ) v 7 *               ",
"                    - N R R ' ) M q $ ; D 3.>.a @ 9 x e q e ~ [ ' ] ' ] ] _ ] ( ( ~ _ _ Q 6 j ! Q 0 j ' ) X.R u & =             ",
"                  - - Y ) $.( k 6 $ D b.W.[.(.F.n $ u F Q l Q [ ] _ _ ' _ ' _ [ W ( _ / w + z Q ^ q 0 T _ R ) Y 9 $ =           ",
"                  & 7 X.! B t $ p 1.W.}..XOX.X(.T.n @ z ^ ^ ) _ _ _ ' _ _ _ _ [ ~ ~ / F : 5 v ^ ! u   c ^ ^ ) ) E q & *         ",
"                  * 7 ! N 9 X h J._.}.$X+X.X.X`._.G.i $ x ^ _ ) _ [ [ _ _ ( ^ ~ I P F w + 8 Q [ ^ z   w E T W ) ) T y @         ",
"                  * % x r $ ..Q.].XX}.2.a ; 2 h 2.!.b.w : P _ _ ' _ _ _ _ _ [ ~ ~ Q z @ @ q ~ ^ ^ x   : q j L U E x 9 #         ",
"                    # : #  .Q.{.$X X@.o o < a 1 > #.^.+.$ w ~ _ ' [ _ _ [ / _ ( ~ Q 8 * * j ) ( / x     & * 7 6 6 * *           ",
"                    % # = T.}.$X$X..o < +.).oX^.M.J.I.m.V @ P ( ) ) ( _ _ / _ _ Q 0 8 > 8 v _ ) _ v                             ",
"                      = % W.#X:XM.o % > A d ! B.].&X^.F.,.: q Q _ ( I P ^ _ / Q 0 8 c w 8 ~ _ _ / v                             ",
"                      < . _.,X).2 % C V.Z.A.3 1 J.>X@XW.T. .* j Q ^ ( e l ~ Q 0 6 e b 6 w ~ _ _ ^ x $                           ",
"                      : X R.).D X Z V.V.D.S.Z.t g OX>XOX}.G.: : b P _ Q 0 0 6 0 v / w : Q / _ _ ^ z *                           ",
"                        o @.;.# , Z.D.C.C.C.S.Z.3 {.<X&X{._.D * z ^ ^ / ~ e z Q ^ ~ 8 q ! ^ ' ' _ j @                           ",
"                        $ J G., A.S.S.C.C.C.S.A.> ].<X=X{.`.x.= q ~ _ ^ [ [ [ ~ / v 6 v $.) ' ) ^ q                             ",
"                        = ; L.F Z Z.S.S.S.D.S.S 4 OX-X%XP.E.E.f * v _ _ _ _ [ / U 0 e R ' ' ' $.T 9                             ",
"                        p . Y.}.m ; G S.S.S.A., #.%X=X%X<.3._.+.@ z _ _ _ ( _ [ j 6 T ' $.' W _ M *                             ",
"                        i o M.,X+X3.3 , Z Z ; h {.>X>X#X#.K _.B.$ w Q _ ' _ _ U 0 v ' _ ( R P R u #                             ",
"                        < $ F.<X>X-X[.O.3 > g W.=X=X>X@XJ a ^.~.t 8 T _ ' ' ) l q / ) _ ( T U M 7                               ",
"                        % ; _.-X>X-X>X>X%XOX%X>X].[.<X X1 g ^.N.t 0 Q _ ' W I e Q ) $.( / / k 7                                 ",
"                        o ..#X-X;X-X-X-X-X2X2X*X{..X1Xn.O ..x.1 . 8 Q _ ' W L T X.! ) / E k 6 &                                 ",
"                        . U.,X;X;X;X;X;X2X2X3X*X{.E.@.; * u : $ * 9 Y ) ' W W ) ^ / ! b q &                                     ",
"                      $ . |.>X-X;X;X;X;X*X*X*XG.2 o @ $ + @ : i s z _ ( $.' ) ) U v 9 *                                         ",
"                      = o +X<X;X;X;X;X-X2X2X/.d o $ @ ; : u Y ! U ! / ) ) R M k 9 $ #                                           ",
"                      $ % $X:X(.*X;X@XOX2X&Xb.o $ + ; u n N Q N E M v v q 7 6 & * =                                             ",
"                      % % XX XK @X>XE.>.:X#XJ . * * * ; * 8 6 8 6 6 6 6 6 + & * t i                                             ",
"                        % K.F.f :X>XL.O.,XoXn $ 9 9 * * $ * * 6 + 5 6 e k q 6 * r t                                             ",
"                          % ; f N.L.;.m U.c.= 9 B u 8 y x N i * 6 6 5 j ~ ! v * $ =                                             ",
"                                      O & & = u j u M F F M 9 * x c 6 6 b ! ! t $ i =                                           ",
"                                        O 7 k k U M z q * 6 * j =.$.v 5 q b B 9 # : =                                           ",
"                                        = r Y M u 6 * * = 6 6 E =.$.E 6 5 6 7 * : r                                             ",
"                                        - - y q * : u M v 9 6 %.=.E U j 5 6 7 * s i                                             ",
"                                          & 7 5 w N / X.~ 6 9 &.$.c ~ x & q v * 9 :                                             ",
"                                            * 0 Q _ *.=.) 6 l &.&.$.R M q 7 R 7 % =                                             ",
"                                            * c ] 5.5.=.~ 5 j R P v j M 7 7 X.y 7 =                                             ",
"                                            * T 5.5.5.=.U + v X.X.R M N y 7 $.x & -                                             ",
"                                            6 / 5.{ 5.6.R & y x M v k r 7 5 ) ! & -                                             ",
"                                          6 7 X.i.I _ =.Q * * $ # $ $ * * 8 %._ &                                               ",
"                                          * q %.6.( c _ Q $ J x.<.,.1.m.V 8 _ -.7                                               ",
"                                          * y X.i.*.v c s # n. X].].].XX;.+ U =.y                                               ",
"                                          * k X.5.5.*.Q t . b.#X&X*X&X:X:.* E =.t                                               ",
"                                          * i -.0.5.q.5.^ * m `.,X<X#XL.p 7 R -.k 6                                             ",
"                                          % i -.6.0.6.0.*.j $ m x.n...< # k X.X.k 5                                             ",
"                                          = p B $.%.=.=.-.Q i o O X O # = i k 7                                                 ",
"                                          & # & * 7 9 q 9 9 = O X O X O - -                                                     ",
"                                            r = $ * # * - X # O O % # < r                                                       ",
"                                                  %  .U.;.# X = < % X =                                                         ",
"                                                r n.oXU.- # m R.oXY.< =                                                         ",
"                                                t B.B.s # :.$X1XXX`.H o                                                         "
};
