/* XPM */
static char *bc91acdca3b14578c1d8384c040cd737a3bDlhC9qP63qOon[] = {
/* columns rows colors chars-per-pixel */
"64 64 222 2 ",
"   c None",
".  c #140E0D",
"X  c #190E0B",
"o  c #15130C",
"O  c #1A140E",
"+  c #1D1A0E",
"@  c #150E12",
"#  c #160F19",
"$  c #1A0F18",
"%  c #161314",
"&  c #1A1414",
"*  c #1C1A14",
"=  c #16121A",
"-  c #1A141B",
";  c #1C1A1B",
":  c #171913",
">  c #21190E",
",  c #231D15",
"<  c #221B1B",
"1  c #281918",
"2  c #311E1B",
"3  c #252017",
"4  c #24221C",
"5  c #29231C",
"6  c #2F281D",
"7  c #36241D",
"8  c #1D1423",
"9  c #1E1A22",
"0  c #1D0F2A",
"q  c #201523",
"w  c #231C24",
"e  c #22152B",
"r  c #251C2B",
"t  c #291E2E",
"y  c #281F25",
"u  c #261B32",
"i  c #291D33",
"p  c #281935",
"a  c #252223",
"s  c #2B2424",
"d  c #2D2925",
"f  c #26202C",
"g  c #2A232C",
"h  c #2C292B",
"j  c #252823",
"k  c #312A27",
"l  c #322D2B",
"z  c #342722",
"x  c #393429",
"c  c #2C2433",
"v  c #2F2836",
"b  c #2F2439",
"n  c #2F2838",
"m  c #312735",
"M  c #332B35",
"N  c #32253C",
"B  c #342C3A",
"V  c #382E3C",
"C  c #353132",
"Z  c #3A3534",
"A  c #36323D",
"S  c #3A333D",
"D  c #3D3A3C",
"F  c #3F3C35",
"G  c #431C19",
"H  c #7E1D1A",
"J  c #45211C",
"K  c #52221E",
"L  c #482A26",
"P  c #46372E",
"I  c #423D3B",
"U  c #413E34",
"Y  c #6D2F2C",
"T  c #7C2422",
"R  c #4C453C",
"E  c #464438",
"W  c #362C41",
"Q  c #392D43",
"!  c #382A45",
"~  c #3C3343",
"^  c #3E3A43",
"/  c #3E3349",
"(  c #3F384A",
")  c #433C45",
"_  c #41354D",
"`  c #443B4C",
"'  c #483D4E",
"]  c #403547",
"[  c #423551",
"{  c #463B53",
"}  c #493C55",
"|  c #4B3D5A",
" . c #483654",
".. c #402F4C",
"X. c #494445",
"o. c #4D4A42",
"O. c #46414E",
"+. c #4B4A4A",
"@. c #494448",
"#. c #534B44",
"$. c #544E4D",
"%. c #54524C",
"&. c #5C554A",
"*. c #515246",
"=. c #4D4354",
"-. c #4E425A",
";. c #474253",
":. c #52445D",
">. c #534A5C",
",. c #514854",
"<. c #5A5452",
"1. c #5C5A53",
"2. c #545350",
"3. c #615C55",
"4. c #645C57",
"5. c #635D4F",
"6. c #66635C",
"7. c #68635A",
"8. c #766B5C",
"9. c #4F4062",
"0. c #544563",
"q. c #564A64",
"w. c #594A65",
"e. c #564769",
"r. c #5C466D",
"t. c #574969",
"y. c #5A4A6B",
"u. c #594667",
"i. c #5C4D6D",
"p. c #61496D",
"a. c #63476E",
"s. c #644D74",
"d. c #6B5477",
"f. c #6C557B",
"g. c #6D5B7B",
"h. c #665672",
"j. c #715A7E",
"k. c #6C6A64",
"l. c #6C6764",
"z. c #736E66",
"x. c #726E6C",
"c. c #7A746C",
"v. c #7D7A6C",
"b. c #767367",
"n. c #7C7675",
"m. c #7C7A75",
"M. c #7A7576",
"N. c #851B19",
"B. c #BF0606",
"V. c #B50C0C",
"C. c #AA1514",
"Z. c #A21919",
"A. c #A51716",
"S. c #B21010",
"D. c #87211F",
"F. c #822624",
"G. c #8B2524",
"H. c #842927",
"J. c #872B29",
"K. c #962322",
"L. c #C30404",
"P. c #827A76",
"I. c #847B69",
"U. c #848175",
"Y. c #898476",
"T. c #86847C",
"R. c #8B847A",
"E. c #8A887C",
"W. c #8D8673",
"Q. c #6F5782",
"!. c #715B81",
"~. c #745983",
"^. c #715782",
"/. c #8B8782",
"(. c #938D85",
"). c #938A86",
"_. c #96928B",
"`. c #9B958B",
"'. c #999586",
"]. c #9B9593",
"[. c #9E9A93",
"{. c #A29E95",
"}. c #A29D8F",
"|. c #ABA49B",
" X c #A8A398",
".X c #B3AB9C",
"XX c #B1A898",
"oX c #A69FA5",
"OX c #ACA7A0",
"+X c #ADAAA2",
"@X c #B3ACA3",
"#X c #B4ADA8",
"$X c #BBB5A5",
"%X c #B5B2AC",
"&X c #BAB4AB",
"*X c #B9B4A5",
"=X c #BEB9B5",
"-X c #C5BCAC",
";X c #C9BDA9",
":X c #C2BDB2",
">X c #CBC1A9",
",X c #C5C2B4",
"<X c #CBC6BB",
"1X c #CAC5B9",
"2X c #D3C9B5",
"3X c #D3CBBA",
"4X c #D9CFBF",
"5X c #D1C7B7",
"6X c #DCD3BD",
"7X c #DCD5BA",
"8X c #E3D2BB",
"9X c #E2D5B7",
"0X c #E2CEBB",
"qX c #D4CEC2",
"wX c #D6D1C3",
"eX c #DBD3C3",
"rX c #D6D3CA",
"tX c #DCD5CA",
"yX c #DDD8CB",
"uX c #DDD9D1",
"iX c #E1D5C3",
"pX c #E3D8C6",
/* pixels */
"                                                  % ; = ; h A D D A h a = : =                                                   ",
"                                              = 8 c { t.h.j.g.g.g.g.g.h.w.} b 8 8 9                                             ",
"                                          - = g O.i.g.g.j.j.~.j.g.g.g.g.g.g.t./ f = -                                           ",
"                                        = - ~ >.>.q.i.h.j.j.j.j.!.!.!.g.g.h.t.q.-.m 9 ;                                         ",
"                                    w 8 f O.q.q.i.t.r.d.f.g.~.~.~.~.Q.Q.f.s.u.y.:.O.~ w 9                                       ",
"                                    = f ;.>.q.q.i.y.y.d.!.!.~.~.~.~.Q.Q.h.u.w.0.-.{ ` ^ f 8                                     ",
"                                  8 f ^ >.;.:.t.i.y.y.s.f.j.j.j.~.^.f.a.p.y. .:.! W O.` ^ f =                                   ",
"                              = 8 9 ~ -.q./ Q t.t.y.r.r.a.d.f.f.Q.s.s.u.y.| N u.( 0 ~ ` O.W u =                                 ",
"                            = 9 9 ~ ( -.q.( e } u.y.a.a.a.a.p.y.r.r.r.t.u.Q N w.:.c r / ( | / 9 % %                             ",
"                          = - V Q { ;.9.e.-.e r =.w.w.y.r.p.y.r.r.r.r.y. .u Q w.w.:.i e / | | ! ; 9                             ",
"                          8 b ( ( ( { | 9.t.~ 8 c } >.t.w.y.r.r.r.y.y.e.V $ ' w.w.y.| i N / | ( n n =                           ",
"                        8 f ( ~ ! / | { 9.t.0.b 0 m =.t.y.y.r.a.r.y.t.| e r >.y.e.y.y.0./ ( ( | ` ` r =                         ",
"                      ; 8 A O.b b / | { | t.y.-.N 0 p  .u.u.u.u.y.y.u.N 0 ..w.y.y.e.y.t.t.e.[ [ { { ~ =                         ",
"                      = f ( ` r f W | } | y.e.e.0...p e V | w.y.y.e...0 m | w.y.y.t.i.y.t.t.9.| ` ` ` f -                       ",
"                    - - A { ( 9 e Q { { | y.t.t.y.y.0. ._ | :.w.t._ e e  .>.p.u.y.r.r.y.t.y.9.[ ` { ` S < ;                     ",
"                    : : A O.[ e e Q [ } | e.t.e.t.y.0. ._ | w.w.q._ e e  .a.w.y.y.y.y.y.y.y.9.| { { ` S q ;                     ",
"                    % h ^ ` W 0 8 / { | 9.t.t.w.t.t.w.w.>.w.w.>.I q y _ p.y.y.r.y.t.y.y.y.r.e.} { } { ' m $                     ",
"                  a % A O.( u p b ( ( | 9.t.>.q.u.u.w.t.>.=./ i 0 t  .w.w.y.y.y.y.y.y.t.i.y.r.9.} { ' ' S ; =                   ",
"                  ; a ^ ( W 0 / W ( | |  ._ ( /  .:.w.} N u e i N  .>.p.p.w.u.| | ( ( 9.e.y.e.{ } } { ' ` g -                   ",
"                  = v ` ( c f ( ( -.( ( i q < @ < y ) =.` ] ] [ }  .:.>.>.' m w 8 0 0 u / e.0.{ { } { ' { V #                   ",
"                g 8 W { ! p [ { { | } ] ~ V l 1 & $ ; M ` } } }  .} -.,.M 1 $ $ 9 v S / { } | } { } { } } / 8                   ",
"                9 8 ( ( W ! | | { } } { ' M ; O < k < @ w M ` ` ) ] M y @ 1 k w = ; c ` { } } } } { { } } ] w #                 ",
"                - f ( ( / | { { { | } ( r & 5 4./.{.`.4.k O $ $ $ $ 1 2 3.).OX[.x.l - r ( ` { } { { { { } ` c -                 ",
"                = v { { | / / _ / { ] i 8 < Z x.{.%X&X@X'.c.4.$.$.3.x.)..X@X#X X/.%.; - r ~ { { [ [ /  .} ` m -                 ",
"                - v O.` { [ / [ { [ t $ q % O , &.+XrXqX5X$X.X|.{.XX$X3X3XqX&X1.4 : : % - r ~ { { [ _ } } ` n =                 ",
"                - v { ( ] ] } ` [ c - g Z Z d : O x @XeX6X6X3X>X;X2XeXtXyX&XF o o d C C f @ a ( } { } } { ` A -                 ",
"                = v O.( / ] ' m N q w M.n.1.o.4 O o x $X6X7X0X0X0X8X8XeX,XR : o 4 X.%.m.m.a - c [ { } } { ` n =                 ",
"                = c O.{ _ ` S q q - <.4.* 4 d a ; * O P -X9X8X8X8XiXiX,X*.% , 4 7 J 5 + 4.l.% 8 / / } { } { n =                 ",
"                - g ` ;.} ` g @ . l P.l L G.J.J.H.T J O U E.>X9X7X2X'.R o k H H.J.K.H.L 4 m.C % f c ` { | [ n =                 ",
"                = f ` { { ~ ; . X k.b., Y K.C.C.C.Z.H.7 3 I.>X9X7X>XW.5 4 H.Z.Z.S.A.A.J.4 z.z.% 9 9 / | { [ c =                 ",
"                ; 9 ( O.{ c - & & /.l.5 G.S.L.L.S.C.G.5 R 5X6X9X7X7XwX%.3 H.A.Z.B.B.C.J.J 6.[.a - 8 V [ [ ` e =                 ",
"                - - ^ ` ( w = % % ].z.5 G.C.B.B.S.Z.T , b.wX6X7X7X7XeXR.* P K.C.B.L.C.J.7 6.[.; - - c / / ` 9 -                 ",
"                  - v ` ~ 8 8 # @ n.(.< Y K.Z.Z.H.H + R 1XrXwX7XwXrXyX1X1.o P H.C.Z.C.D.2 U.T.% 8 - f ` ` V -                   ",
"                  ; f ) ~ 8 V - - ` =XZ d G.D.H 3 + 5.=XyXeX,Xv.b.*XrXrX,Xb.3 G N.D.F.K l |.*.: 9 f g ` ` t #                   ",
"                    - V Q n ` w q f oX].5 * O d &.E.2X7X6X.XE : 3 x }.7XeX3X}.1.l * : < /.%Xj 9 V C c ' V $ -                   ",
"                    = r ! ( { b b - ;.m.<.1.T.#X3XpX7X7X;XE , F U 3 U XXeX6X6X,X%X/.1.$.m.2.= M ) ) ) S r -                     ",
"                      = r ~ ` ) ` g 8 # $ a n.tX7XeX9XpX8.> U $.X.I 1 4.eXiX;X'.,X(.s @ $ - g S ) E ^ a = s                     ",
"                        = 9 S ` ` ) A V c ; z &XyXpXiXeX4.> z w 1 y 1 #.eX6X2X*X*Xk < h B ~ ` ) Z A ; : a                       ",
"                          - - g g ~ ` O.) g O R R.6X7XpX.X&.R 3.z.#.&.|.eXiXiX*X#.O y @.` ` ^ h ; ; @                           ",
"                            - ; : w d S I V < O R eX9X2X6X3X5X4XtX3X3XiX4XeXiX'., & C ) S g 9 - % :                             ",
"                                  ; - w g h & % 4.eX4XW.XX6X6X2XXXeX4X5X8.;XeX{.& * h g w - -                                   ",
"                                    a w % % & X l.tX:X7 I.6X0X Xx ;XeX-X, b.tX{.1 % & # -                                       ",
"                                        & = @ & s c.).> Y.eXeX`.> XXwX5X6 R T.Z % - - -                                         ",
"                                        - w $ 1 ; * 1 O #.P._.z.3 P.R.l.4 O - = < ; - & ;                                       ",
"                                      8 M M ; $ $ ; & & O X o o O O o o O % a j a - h j =                                       ",
"                                    9 9 ;.A g $ q < < @ O O + : % O : : ; = 9 - - 9 ^ D ;                                       ",
"                                  h = g / m r - V I w . z , + o * o o o % = 9 r 8 9 v Z a %                                     ",
"                                  ; ; A O.S q q M ) y < (.[.Y.v.&.6.v.8.3 * ) ^ r = A X.h %                                     ",
"                                  ; ; A O.~ 8 q V ) y 1 ).[.Y.m.1.3.v.z., ; ^ ^ r = S X.s %                                     ",
"                                  4 % % h c $ g S ) < Z #X&X$X.X_.1.E.:XU : S } B - s < % % *                                   ",
"                              : : : +.I ; % # ^ V I $ X.&X&X7.s s D `.rXl.; ) ,.~ % = s %.%.:                                   ",
"                              % o *.[.{.m.l # ) S M $ l.].o.O < w - l _.n.- ] } ) = l /.|.|.I @                                 ",
"                              o o _.,X+X|.D - @.] m $ I 1 O O s s = X 1 Z < N ] ~ = x +X&XqXl..                                 ",
"                              o O U.rX3X,Xd w ,.' g - < k R 5 O : 5 R x > O m ] Q y < :XuX<XI @                                 ",
"                              * : h [.rX:Xw f =.,.y 1 ].|.R. XP.m.|.3X:X].s y V ) m & +X&X3.&                                   ",
"                                  - j +.o.% c ,.,.t w &X<X(.c.rXwX,X*X=X#Xl w m =.M & k s % w                                   ",
"                                  ; % % % = M =.=.w = R 7.o.l k.k.U R 6.+.: - n >.S :                                           ",
"                                    % : % % M ,.=.w < + o O : O . * o o o ; - ~ +.M &                                           ",
"                                        = ; 9 ~ ` < 4 O * d         j : ; a : ^ S ;                                             ",
"                                              - r ; O O +             : : % : 9 -                                               ",
"                                                $ = #.Y.4 &           j m.k.: =                                                 ",
"                                                w x. X<XF &           h ,X+XM.j                                                 ",
"                                              = A =XuX).* *           : T.rX=X+.                                                ",
"                                                ; ^ k.j %             : 9 k.+.:                                                 "
};
