/* XPM */
static char *_81e8d06936a4265d1e596731497def1rBmrCRqnhHr5NtdZ[] = {
/* columns rows colors chars-per-pixel */
"64 64 177 2 ",
"   c None",
".  c #0F0B0C",
"X  c #130F0C",
"o  c #14120E",
"O  c #19130F",
"+  c #140E14",
"@  c #180F15",
"#  c #10071E",
"$  c #160D1B",
"%  c #190F1D",
"&  c #151314",
"*  c #1A1414",
"=  c #1C1A12",
"-  c #16121A",
";  c #1A141B",
":  c #1C191B",
">  c #221D16",
",  c #211B1C",
"<  c #25211C",
"1  c #29241D",
"2  c #160D23",
"3  c #1A0E23",
"4  c #171421",
"5  c #1D1323",
"6  c #1E1A22",
"7  c #1E1329",
"8  c #211625",
"9  c #231C24",
"0  c #22152B",
"q  c #241C2B",
"w  c #281F2C",
"e  c #241532",
"r  c #261A32",
"t  c #291D33",
"y  c #2D1F39",
"u  c #262123",
"i  c #2B2626",
"p  c #2D2924",
"a  c #26212A",
"s  c #2A222D",
"d  c #2E2A2C",
"f  c #312D25",
"g  c #322C2D",
"h  c #363224",
"j  c #34312C",
"k  c #3A342F",
"l  c #3E3B2E",
"z  c #262531",
"x  c #2C2433",
"c  c #2E2932",
"v  c #2D253B",
"b  c #2F2D3B",
"n  c #302636",
"m  c #332C34",
"M  c #32263B",
"N  c #342B3B",
"B  c #392E3E",
"V  c #363235",
"C  c #3A3433",
"Z  c #3D3A34",
"A  c #37323E",
"S  c #3B333E",
"D  c #3D3A3B",
"F  c #423D36",
"G  c #433E3C",
"H  c #46433D",
"J  c #49433E",
"K  c #352543",
"L  c #382745",
"P  c #362B41",
"I  c #392C43",
"U  c #3C2E49",
"Y  c #363241",
"T  c #3D3344",
"R  c #3E3944",
"E  c #3E334A",
"W  c #3E3A4B",
"Q  c #413547",
"!  c #423B46",
"~  c #41354C",
"^  c #443B4D",
"/  c #483D4F",
"(  c #443653",
")  c #483756",
"_  c #463A54",
"`  c #493B56",
"'  c #473758",
"]  c #473958",
"[  c #493B59",
"{  c #4E3D60",
"}  c #513F61",
"|  c #454244",
" . c #4B4644",
".. c #4B4845",
"X. c #4A454B",
"o. c #55554D",
"O. c #4C4354",
"+. c #4E435B",
"@. c #524A56",
"#. c #51445C",
"$. c #544A5C",
"%. c #565157",
"&. c #5E5857",
"*. c #56505E",
"=. c #58535D",
"-. c #645F57",
";. c #67625F",
":. c #544564",
">. c #564A64",
",. c #594C66",
"<. c #554569",
"1. c #59476D",
"2. c #564969",
"3. c #574A6D",
"4. c #564C6C",
"5. c #574969",
"6. c #594A69",
"7. c #5A4A69",
"8. c #58496A",
"9. c #584A6A",
"0. c #59496A",
"q. c #594C68",
"w. c #5B4D69",
"e. c #5D4E6B",
"r. c #58496D",
"t. c #59496C",
"y. c #5A496C",
"u. c #59486E",
"i. c #5A496E",
"p. c #5B496E",
"a. c #5B4A6E",
"s. c #5A4B6E",
"d. c #5C4B6E",
"f. c #5B4C6F",
"g. c #594E6D",
"h. c #5F4D6F",
"j. c #5E4E6E",
"k. c #594A6C",
"l. c #575061",
"z. c #5C5362",
"x. c #5C5464",
"c. c #595164",
"v. c #5D526B",
"b. c #5F516D",
"n. c #5C516A",
"m. c #5B4770",
"M. c #5E4B72",
"N. c #5C4871",
"B. c #5D4C71",
"V. c #60546B",
"C. c #62566C",
"Z. c #64556F",
"A. c #635271",
"S. c #655373",
"D. c #655472",
"F. c #695676",
"G. c #685873",
"H. c #6C5977",
"J. c #6E5B79",
"K. c #6C6661",
"L. c #7C7573",
"P. c #807C78",
"I. c #95908A",
"U. c #A69F9A",
"Y. c #A9A39E",
"T. c #B1AAA4",
"R. c #BBB5AE",
"E. c #BEB8B4",
"W. c #C5C0BA",
"Q. c #C9C2BC",
"!. c #CCC5C1",
"~. c #D1CCC6",
"^. c #D5D0CD",
"/. c #D9D2CD",
"(. c #DDD6D2",
"). c #DED8D3",
"_. c #E1DAD4",
/* pixels */
"                                                + 5 Q #.A.F.H.J.H.G.Z.#.E 0 5                                                   ",
"                                            - c @.z.C.n.0.:.h.A.S.A.h.,.h.w.#.n 6                                               ",
"                                          6 W *.z.$.$.,.h.h.p.<.y.d.1.1.,.:.V.O.B 5                                             ",
"                                      4 v +.>.l.$.M ,.2.0.p.p.M.M.d.d.>.1.1.,.>.>.W x                                           ",
"                                    % r #.k.,.b.E 2 q.2.n.<.m.m.1.u.1.i.9.2.9.9.#._ ~ a                                         ",
"                                  $ M _ 2.d.7.7._ 2 T k.2.g.m.m.m.u.u.3.i.i.9.9.:._ _ X.Y                                       ",
"                                - t _ _ :.3.0.7.+.7 r _ >.2.1.p.1.i.1.i.1.9.7.7.+._ ( W _ z                                     ",
"                              - w W [ ' <.3.0.7.q.( 4 4 R 2.1.p.i.i.9.i.9.1.7.,.+._ _ O._ _ M                                   ",
"                              s / / ) ) #.h.h.m.,.w.Q t 3 8 L { i.i.1.i.1.7.0._ ) ] ) ` ] ` ] v                                 ",
"                            ; B / ` ) ) } :.h.7.7.>.:.#.M e 0 K i.<.1.i.9.1.:.) _ ] ) ] ` ] ` R q                               ",
"                          @ w / / ) } ) ) } #.7.,.e.7.>.7.7.7.7.<.1.i.i.d.1.] ` ` ` _ ] [ ` _ O.~ ;                             ",
"                          9 Q / / ) ) ) ) / ) $.9.,.,.:.0.7.:.0.B.1.i.B.d.1.] ` ] [ ] ] ] _ _ _ _ a                             ",
"                        ; S / / ) ) [ ) ` ` _ ` 0.,.e.9.9.9.1.1.i.1.1.i.i.:.) ] ` ] ` ] ` ] ] _ O.R 6                           ",
"                        8 ^ / _ ) ) [ ) ` ` ( ` ` :.e.d.1.9.9.9.i.i.1.d.9.[ ` ` [ ] [ ] ] ` [ _ _ ^ w &                         ",
"                      - N O.( ` ) { ) ) ` ` ~ ) ( ] >.<.9.9.i.N.i.u.i.9.#.` ) ` ) ( [ ` ` ] ` ` _ _ A :                         ",
"                      6 ^ _ _ ] ) [ [ { ` ) P U ( ) #.[ >.9.i.N.i.i.<.} [ ) ) ( K ( [ ` ] ` ] ` _ W ! s                         ",
"                    & m E ~ [ [ [ [ [ [ ) [ L r _ _ ` ` ` #.:.} <.} } ) ) ) { e L [ ] ] ] ` ] _ U Y | R :                       ",
"                    5 W E ( ] ] ] ] ` [ [ ] _ e ~ / ` ` ( ] ] ] ' ) ) [ ` ) B t _ [ ) [ ] ] ` ` ( _ ( W q                       ",
"                    z O.E ( ] _ ] [ ` ] _ ] ` t n ` ^ _ ) ] _ _ ' ] ) ( / Q 0 L [ ` [ ] ] ` ` ` _ _ E T x ;                     ",
"                  ; v O.' ' ] ] ] ` ` ] ' ` ` M 9 / _ _ _ ] ] ] ] ' ) ( / n 3 Q ` ] ) [ ] ] ` _ [ _ E I Y 7                     ",
"                  5 T ^ [ ` [ ` ` ] ` ] ] ] ` T % I ` _ [ ] ] ] ] ' ' [ Q 8 8 ` ` _ ] ] ] [ ` ` _ _ _ W ^ 6                     ",
"                  9 ! ( [ [ [ ] ] ` ] ` ] _ [ T $ x O._ _ ] ] ] ] [ ` ` Q 8 e ` ` ` [ ] ] ] ` ` ] _ O._ ` q                     ",
"                  w ^ _ ` ` ] ` ` ] ` ] ` _ O.W % 8 ^ _ _ [ ] ] ] ` ` ` M % T ` ` ' ] [ ] ] ` ` _ _ ] ( _ c                     ",
"                  a / _ ` ] ` ) ] ` ] ] _ ( _ / 8 % W ^ +.] ] ] ] ` _ ^ w % / ` _ ) [ ] ] ` ] ` ] ] ` _ X.M                     ",
"                  a ^ _ ` ` ` ` ` ) ] ] ] _ _ X.x % t W _ _ ] ] ] ` _ T 8 9 Q ( ` [ ] ] ] ] ` ] ` ] _ _ _ R                     ",
"                  a X._ ` ` ` ` ` ` ` ` _ +.^ _ T 8 % n O._ ] ] ` ] ` B % s / ` _ ) ) ] ] [ ] ] ] ] ] ] _ ~                     ",
"                  z _ ( ` ` / _ ` ` ` ` ] _ O._ ^ x % 4 R ^ _ _ ` _ ` N 8 w / / ` ` ` ] [ ] ] _ _ ] _ _ _ R                     ",
"                  a ^ ^ ` ` ` ` ` _ _ ` ( E W ` W +.q 4 6 N ` O.` ` ` x % w / ( ` ` ` ) ] [ ] ] _ ] ) _ / b                     ",
"                  q ~ ^ ` ` ` _ / _ ` ` ( Q ~ _ ( _ Y 7 4 7 N ` ` ` ` w % s / ` ` ) ` ` ] ] ] ( ( ] ] _ / s                     ",
"                  6 R _ ~ I Q ` ` / / / ) ( _ _ W _ _ W r 4 7 t S ^ Q 8 @ n / ) ` ` ` ` ` ` ` ] _ L v M ^ 9                     ",
"                  5 S ^ P 3 0 ~ / / ) ` ( ) ( ` O.O._ O.P r 4 ; 8 w 8 % $ B _ ` ` ` _ ` _ / ` E M 3 y E T 8                     ",
"                    s O.[ ~ 0 % N / ` / Q L ~ ) ] ] _ _ _ _ v 7 % $ $ 3 n / ` ` ` ` _ ` ` ~ M 2 2 I ` ` x ;                     ",
"                    9 ^ ( / N 5 8 Q ` ` ~ Q ~ _ W { { W _ _ / I x w q I / / _ ] ] ` ` ` _ n 3 0 M ^ ` ^ w                       ",
"                      m [ _ _ x , d ` ( [ ) ` ` { { W ] ] _ _ _ / ` / _ _ _ ] ] ) ` ` T t % q R _ ` / B 6                       ",
"                      w Q ` _ R 8 7 ` / [ [ ` { E { ' ] ] ] ' ] ` / / _ ` [ ] ] ` _ _ M % 5 N O.( X.Q n                         ",
"                        ; S W W L 3 T ` _ [ [ [ ' { ' { { [ [ ' ` [ ) ) [ [ ) [ _ _ T % 8 ~ _ W W W q ;                         ",
"                          6 N O./ 7 c ^ _ _ _ ` ' ' ' { [ [ [ [ [ ) [ [ [ ) ) ` [ ^ t 9 Y O.W O.W z 4                           ",
"                            - a N x + ; R ` ` ` W { { E ) ` [ [ ) [ [ [ [ [ } [ ` x 4 I W W W b 6                               ",
"                              ; : 6 s 9 9 M O._ W _ W { _ ` ` ) [ ) ) ` ` ` [ ` _ x v ^ W Y v -                                 ",
"                                  & C D u : a ! N v W +.^ ` ` _ ) [ _ ` ` _ ` ` W T T z 6 4 4                                   ",
"                                    & u D C : : ; , 8 d N T Q I Q Q Q B M y q 0 8                                               ",
"                                      = i Z g & 9 G 9 ; 5 ; 8 3 3 3 $ $ % ; %                                                   ",
"                                        O , = * G  .9 , , % 9 w s w w w a 8 % * ;                                               ",
"                                        = o o p G k , i i : 9 G ! Q ! ! S B n ; + *                                             ",
"                                        & + m G i * p G G C , ; 8 t w , w S ^ m * : *                                           ",
"                                      & 9 : g C , O j F F J p @ $ $ 9 n S ` ! ! a @ ,                                           ",
"                                    - z O.i $ * , p f 1 F F 9 * Q n * a V R Q m 9 & ! ,                                         ",
"                                    6 R =.B ; ; , p f 1 h p * * %.B ; , w 8 6 - ; s %.s -                                       ",
"                                  & W W d a $ m 9 - < u f < * a @.q * : : 4 - 6 : a c | 9                                       ",
"                                  & d X.R 6 % X.T u * < f > ; S G , * < d 4 : 6 + s | | , +                                     ",
"                                = o . & u 4 q $.+.$.N 8 @ * 9 @.3 % O * ; % * * - : u . * *                                     ",
"                                . o.H * & ; M n.O.n.@.| * * m X.@ * * * , B D * & & * u &.J                                     ",
"                                j W.T.U.D - X.l.t >.>.q.r $ m m + - ; m X.@.C O o o ;.T.Y.!. .                                  ",
"                                ..(.R.T.g - O.c.7 E n.k.U 4 6 : ; 8 V | D 9 * * 1 o l T.Q.(.L.                                  ",
"                                p ^._./.u $ O.l.P 7 4.:.i.` a $ 8 S S , * @ , k G f > -.~./.C                                   ",
"                                & P.E.).: 4 O.$.] 2 _ 2.,.>.N w + 9 , + * * i k F F f = I.;.                                    ",
"                                    : 1 & 7 O.$.q.[ 0 +.$.>.O.$.M 4 + w 9 X i i k H l <                                         ",
"                                        - x c.$.n.2.U r #.>.q.>.>.$.q , @ > i g i i Z <                                         ",
"                                        - z l.>.>.>.2.E U ,.k.2.,.,.R % 8 , @ i p i j >                                         ",
"                                        : + z +.l.>.2.i.>.>.9.i.2.~ M $.,.$.m : * o o *                                         ",
"                                          : - z _ $.4.g.4.g.3.<.2.` :.e.$.$.m * o                                               ",
"                                            & : X : z D | X.O.@.@.@.^ S x 3 ; *                                                 ",
"                                            : & & & & & : : w s w 9 8 $ + $ * &                                                 ",
"                                              & & & = :             ; : 5 ;                                                     "
};
