/* XPM */
static char *c3f58d31b6184820f2b3c8daef37025fUHNED86sH9ZhJSjo[] = {
/* columns rows colors chars-per-pixel */
"64 64 198 2 ",
"   c None",
".  c gray6",
"X  c #170F0A",
"o  c #15110D",
"O  c #1A140E",
"+  c #150E12",
"@  c #160F1B",
"#  c #1A0E15",
"$  c #151314",
"%  c #1A1414",
"&  c #1D1914",
"*  c #17121B",
"=  c #1A141C",
"-  c #1C1A1B",
";  c #211D15",
":  c #221C1B",
">  c #25221D",
",  c #2D291F",
"<  c #272218",
"1  c #1C1422",
"2  c #1E1923",
"3  c #1F1329",
"4  c #1B1526",
"5  c #211623",
"6  c #221B24",
"7  c #22152A",
"8  c #241C2A",
"9  c #291D2E",
"0  c #281B28",
"q  c #2A1C32",
"w  c #241632",
"e  c #242223",
"r  c #26212B",
"t  c #2B232D",
"y  c #2C292B",
"u  c #2B2723",
"i  c #342D24",
"p  c #322B2A",
"a  c #353025",
"s  c #353229",
"d  c #3A3328",
"f  c #2C2433",
"g  c #2F2933",
"h  c #2F253A",
"j  c #312535",
"k  c #322B35",
"l  c #31243B",
"z  c #342C3B",
"x  c #392E3D",
"c  c #353232",
"v  c #3D3B34",
"b  c #36333C",
"n  c #3A323C",
"m  c #3A393D",
"M  c #3F3635",
"N  c #7D1E1B",
"B  c #77221F",
"V  c #413A2D",
"C  c #413A37",
"Z  c #4B443A",
"A  c #464139",
"S  c #362C41",
"D  c #3A2D42",
"F  c #3B2E49",
"G  c #363141",
"H  c #3C3343",
"J  c #3E3945",
"K  c #3E324C",
"L  c #413546",
"P  c #423B46",
"I  c #42364B",
"U  c #443B4D",
"Y  c #493C4E",
"T  c #433552",
"R  c #463B54",
"E  c #493B55",
"W  c #473959",
"Q  c #493B5A",
"!  c #483754",
"~  c #4D3F61",
"^  c #4A4542",
"/  c #4E4945",
"(  c #46404F",
")  c #534E44",
"_  c #5A514F",
"`  c #575148",
"'  c #4B4253",
"]  c #4E425B",
"[  c #464052",
"{  c #52445D",
"}  c #534A5C",
"|  c #544C58",
" . c #5C5754",
".. c #655D4D",
"X. c #625B55",
"o. c #655E5B",
"O. c #6C6455",
"+. c #6B645C",
"@. c #6B665E",
"#. c #716859",
"$. c #544564",
"%. c #564B64",
"&. c #594C65",
"*. c #564669",
"=. c #59476C",
"-. c #57496A",
";. c #59486A",
":. c #59486D",
">. c #58486C",
",. c #5A496C",
"<. c #59486E",
"1. c #5A496E",
"2. c #5B4A6E",
"3. c #594B6D",
"4. c #5C4B6E",
"5. c #5C4D6B",
"6. c #594765",
"7. c #5B5264",
"8. c #5E5369",
"9. c #5E4C71",
"0. c #64586E",
"q. c #604E73",
"w. c #655474",
"e. c #665975",
"r. c #685B76",
"t. c #6C5B7C",
"y. c #6C6764",
"u. c #716D63",
"i. c #736E6B",
"p. c #76726C",
"a. c #7B736C",
"s. c #7D7975",
"d. c #891F1E",
"f. c #9A1F1E",
"g. c #A11C1B",
"h. c #8C211E",
"j. c #86201F",
"k. c #9B201F",
"l. c #95201F",
"z. c #8E2221",
"x. c #8E2927",
"c. c #8A2928",
"v. c #942422",
"b. c #982120",
"n. c #81796F",
"m. c #827D73",
"M. c #807B78",
"N. c #85827C",
"B. c #8B847C",
"V. c #8F897F",
"C. c #8A8273",
"Z. c #6D5B81",
"A. c #8D8983",
"S. c #898684",
"D. c #948C83",
"F. c #998F85",
"G. c #908D88",
"H. c #9B958D",
"J. c #9A9388",
"K. c #9C9894",
"L. c #A1978D",
"P. c #A39C95",
"I. c #A39E99",
"U. c #AAA294",
"Y. c #A5A19B",
"T. c #ACA59C",
"R. c #A4A097",
"E. c #B2AB9E",
"W. c #B2A596",
"Q. c #B9B09F",
"!. c #ACAAA6",
"~. c #B3ABA2",
"^. c #BEB8AD",
"/. c #BAB4A7",
"(. c #BBB5B2",
"). c #C3B8A6",
"_. c #C4BCAB",
"`. c #C5BAA9",
"'. c #C7BEB2",
"]. c #CDC5AE",
"[. c #D0C2AE",
"{. c #C6C1B7",
"}. c #CBC3B3",
"|. c #CAC4BA",
" X c #CAC4B7",
".X c #D5CCBD",
"XX c #DACEBA",
"oX c #DDD3BD",
"OX c #D6D0BA",
"+X c #E1D3BE",
"@X c #E0D8BC",
"#X c #CAC5C0",
"$X c #D3CDC1",
"%X c #DCD3C2",
"&X c #DAD5C9",
"*X c #D9D5C7",
"=X c #E0D5C2",
"-X c #E0D9C1",
/* pixels */
"                                                = 0 j H P E U Y H t 4                                                           ",
"                                          - f U 6.0.t.t.t.t.Z.r.e.0.7.R k 5                                                     ",
"                                      2 t P %.9.q.e.t.t.t.Z.Z.t.e.e.e.e.w.Q S 7                                                 ",
"                                    9 I ] %.2.-.<.1.9.q.q.q.q.q.9.-.9.9.q.t.w.*.z =                                             ",
"                                2 f I } &.&.>.1.1.1.1.1.1.4.1.1.1.<.,.,.>.>.4.w.e.( t                                           ",
"                            * 8 D U [ 6.$.6.,.>.1.1.1.1.1.4.1.>.1.,.,.<.>.>.>.,.&.8.7.L 8                                       ",
"                            8 H E Y Q 6.;.;.>.<.;.,.1.1.1.>.1.<.<.=.=.<.;.>.&.=.&.&.8.8.' 6                                     ",
"                          3 H R E ! Q 6.4.;.=.=.1.,.,.<.1.>.>.1.<.<.<.,.,.,.,.=.2.-.%.&.0.' j                                   ",
"                        - b K [ [ ] W $.3.-.=.<.<.<.<.<.<.<.<.<.<.<.<.<.>.>.1.>.>.>.>.%.%.7.| g                                 ",
"                      $ g ( [ [ K R W Q $.-.<.<.<.<.<.-.<.<.<.<.<.<.<.=.*.*.=.6.=.>.=.&.5.%.&.} l                               ",
"                      e m [ [ K K W R R ] *.<.-.<.<.<.<.<.<.<.<.<.<.<.=.<.=.-.>.<.<.Q Q $.&.{ 5.E                               ",
"                    = k ( [ K W h K Q W Q *.*.-.>.>.-.-.*.*.-.<.<.<.*.Q Q Q Q Q Q Q S w l E } } } b                             ",
"                  = 5 J ( J K J q R R R Q Q *.9.>.>.2.2.<.<.*.-.*.~ Q W Q W Q R Q Q ! l 3 7 j Y | E t                           ",
"                  = g R K J U K w R R R R W ~ ~ $.$.*.-.*.$.$.~ W W W Q E R E R W Q Q R F q q f U } x                           ",
"                  2 H R R Y Y H 2 T R R Q ~ Q W W Q W Q W W W W W W W R R R R R Q E ! ! Q E T E T [ J                           ",
"                * f U R R R J x 8 K Q R R Q W W Q W W W W W W ! W W R R R Y Y P E ! E E Q Q Q E R R U 8                         ",
"                4 G R R R U f z 5 I R Q R Q W Q T W W W W W Q R W R R R I k j 9 j l L Y T E E T K R R f                         ",
"              @ h J K [ R 9 f x 1 K U E R R W R K T W W W Q Q R R R H f = = = = # # # 9 n Y U U F R R z                         ",
"              8 J R U R S 1 k D 1 D D R W R Q R T T W W Q Q ! R K G 8 4 t 0 = # p C : # 5 j L E R R R G                         ",
"            1 G R R K R f 1 H H 7 l h I R R E Q T ! Q W ! W W E F h k J k - = _ L.P.B._ : : 6 D E [ R H 8                       ",
"        * 2 k R [ R R G 8 5 P n 3 t h S R R W R K K W W W E Q R K J R m : # ..I.P.~.~.P.M.s $ - k ( Y J r                       ",
"      $ 6 b ( R K R G g 5 0 Y P 8 8 g 9 U E ! W T T W W W E Q Q [ [ x : # #.U.D.D.'.'.T.T.R.+.% o g P J r                       ",
"        = t n n G h r 5 * 9 E U f 1 g 4 x E Q W W ! ! W Q W W E Y L t % Y P.E.F.m.n._ C ^ N.Y.p.> * t m 6                       ",
"          $ = 2 1 1 1 * $ f R U g 4 k 8 9 L E Q W W W Q W Q E E Y j # C n.L.`.F.V X ; ; o - / K.S.> % > :                       ",
"                        = f R R G 4 g k 1 z E E ! ! Q Q W Q ! E L = : n.n.L..X#.+.A.H.u.a % &  .Y.p.; & %                       ",
"                          f E R I 2 8 J 0 5 F E E T E E ! ! E P 9 ; _ I.W.'.%XXX&X|.N.X./ > o - y.H.>                           ",
"                          f Q R U r = J x 5 q F Y R E E ! I T C : p F.E.].%XXX+X{.Z & < > % $ . e N.>                           ",
"                          f [ U J x = f Y j 1 q L E Y Y L l D 0 + o.T.).oX@XoXXX#.& h.v.z.l.j.- $ c -                           ",
"                          8 R J J J 8 2 R I j 5 9 L Y j j L C # p L.~.}.%XoXoX].s B x.x.v.v.k.h.- $ $                           ",
"                          2 J K F W F 4 x Y P l 7 7 q 7 C L j O  .T.~.%X-X+XoX].& j.c.v.g.g.k.v.c.$ $                           ",
"                          = J J K W K w q Y E E S q w L ! C 5 < B.T.J.%X=X+X+X[.s B x.v.g.g.k.l.j.- -                           ",
"                          * g ( [ [ ] S 1 D U E E ! Y Y Y j # Y I.p.O..X=X+X+XXXu.< c.v.v.k.k.B O $                             ",
"                            r J R [ R U q q T R ! ! E Y Y 0 * p.T.Z ) %X%X@X+XoXE.< u h.h.h.O s v $                             ",
"                            4 z J R R ' F 9 S R Y E E Y L 5 0 G.R., Z OX%XoXoX+X*Xm.a o < s O.{.u.$                             ",
"                              2 b J R R E z q R Q ! ! ! L = 0 A.K.i s |.XX).).+X%X%XE.C.V.^.%X&XC.$                             ",
"                                4 t J Y P I l F E ! ! T Y 1 @ c s.v & V.%XU.W.XX%XoX%X%X%X%XOX%X].> $                           ",
"                                  $ 2 b P Y R F ! ! Q ! Y 5 1 $ e s - i n.E.'.=XoXoX-X%X%X%X@XoXOX .$                           ",
"                                    $ = r z U R ! E ! E Y f 9 j * $ % O X < Z W.+XoXoX+X%X=X-XoXOXH.$                           ",
"                                        $ * 5 k C Y Y Y Y J x Y b e * * % O X V `.+XoX@XoXoXoXoX*X!.-                           ",
"                                              # @ 5 j x x n L P P J b y - % & O C.oX=X`.XXoXoX].OX!.e                           ",
"                                                    1 1 1 1 5 5 8 r r e = = % O ..%X.X#.Q.%X)... X!.-                           ",
"                                                    1 8 9 8 1 1 1 = * * = * e - d .X}.V J.*X^.i T.A.-                           ",
"                                                  5 g P P z 5 : = * t z f : 5 : : R.~.C V.^.K.i A y .                           ",
"                                                $ g P P J 4 * j z 4 2 b C P k : & & & o > & & $ O                               ",
"                                                # y J n q : t E %.f * 4 e y n x u - - $ $                                       ",
"                                                  - 5 1 = % z Q &.U 4 * = * % 0 k m m *                                         ",
"                                                  * % 6 @ 5 k E &.] 2 4 k k 5 = = g t $                                         ",
"                                                % % n z @ j k R %.%.h 4 G [ P S 0 = * $                                         ",
"                                                % 6 P k = k L x } 7.S 4 H { ] ! n 1 1                                           ",
"                                              : * y | k = z k l K K G 4 G 5.} { E = 2                                           ",
"                                              2 * H | 8 = x n x J [ J 4 z %.6.,.| 0 =                                           ",
"                                              * 1 ( } 2 # t y n G G f @ g %.6.~ &.D *                                           ",
"                                            - * 2 [ ' 8 * % X + $ . $ 4 f 5.U T 6.J *                                           ",
"                                            - = t } R 4 y y.@.X.X.+.^ $ H Y l ~ &.I 1                                           ",
"                                            * * z } J * P ~.E.E.~./.s.$ p q F ,.&.J 4                                           ",
"                                            = 1 b %.[ * ^ $X$XOX$X$XA.$ = Y } $.$.I 3 =                                         ",
"                                            = @ J 7.| 1 : H.*X&X&X{./ = x %.-.-.%.' 8 *                                         ",
"                                            : * n ' | n = > ) m.C.^ % e Y %.%.-.%.| t $                                         ",
"                                            e + = 8 g k e $ o O o o - n | } } } ( H 8 -                                         ",
"                                            c e - * * * = % % % o o : : 6 8 8                                                   ",
"                                            c y e -       = % & & % % % $ = %                                                   ",
"                                                            $ $ p u + % ^ S.C %                                                 ",
"                                                            = s.(.P.^ O % M.(.y.>                                               ",
"                                                            e H.(.|.#Xs.e - i.p.                                                "
};
