/* XPM */
static char *_e26d9142fbf45d7df24ef9ca5cff8ddMiD6L7uwBJpxXlxZ[] = {
/* columns rows colors chars-per-pixel */
"64 64 147 2 ",
"   c #1C1715",
".  c #1C1816",
"X  c #1E1A19",
"o  c #221A15",
"O  c #2A1F17",
"+  c #221E1C",
"@  c #23201E",
"#  c #29231D",
"$  c #252322",
"%  c #2A2624",
"&  c #2D2825",
"*  c #2A2729",
"=  c #2E2B29",
"-  c #312A26",
";  c #342E2C",
":  c #35302D",
">  c #353231",
",  c #3B3635",
"<  c #3D3936",
"1  c #3E3B39",
"2  c #403A36",
"3  c #403E3C",
"4  c #43413E",
"5  c #4E473E",
"6  c #444341",
"7  c #4B4644",
"8  c #4D4845",
"9  c #4D4B4A",
"0  c #504742",
"q  c #514A44",
"w  c #514E4C",
"e  c #57514C",
"r  c #5A544E",
"t  c #565553",
"y  c #5A5654",
"u  c #5D5954",
"i  c #5D5B59",
"p  c #62574B",
"a  c #615B56",
"s  c #615D5C",
"d  c #64605F",
"f  c #666362",
"g  c #696664",
"h  c #6B6966",
"j  c #6E6C6A",
"k  c #706C67",
"l  c #716E6C",
"z  c #72706E",
"x  c #757372",
"c  c #7A7675",
"v  c #7A7876",
"b  c #7D7B7A",
"n  c #817E7D",
"m  c #82807F",
"M  c #858382",
"N  c #898685",
"B  c #8A8986",
"V  c #8E8D8B",
"C  c #928C87",
"Z  c #908F8D",
"A  c #8F908B",
"S  c #91908E",
"D  c #98928D",
"F  c #8F8F91",
"G  c #959392",
"H  c #999694",
"J  c #9B9897",
"K  c #9D9C9A",
"L  c #A29B97",
"P  c #A19E9D",
"I  c #A2A09F",
"U  c #A3A3A5",
"Y  c #A6A5A5",
"T  c #A7A6A5",
"R  c #A4A3A1",
"E  c #A9A6A4",
"W  c #A9A7A7",
"Q  c #ABA7A6",
"!  c #A9A6A4",
"~  c #A9A9A5",
"^  c #ABA8A7",
"/  c #A8A7AA",
"(  c gray66",
")  c #ADAAA8",
"_  c #ABABAD",
"`  c #ADADAC",
"'  c #AEABAA",
"]  c #B1ACAA",
"[  c #B2AEAD",
"{  c #B0ACAF",
"}  c #B1ADAD",
"|  c #B2B1AF",
" . c #B2B0AE",
".. c #AEAEB0",
"X. c #B0AEB0",
"o. c #B3B2B2",
"O. c #B3B2B3",
"+. c #B4B0B0",
"@. c #B5B1B0",
"#. c #B6B2B1",
"$. c #B4B3B2",
"%. c #B4B3B4",
"&. c #B6B2B4",
"*. c #B6B2B5",
"=. c #B5B3B6",
"-. c #B5B3B7",
";. c #B7B3B6",
":. c #B5B4B5",
">. c #B6B5B4",
",. c #B7B5B4",
"<. c #B5B5B7",
"1. c #B6B4B6",
"2. c #B6B5B6",
"3. c #B7B4B7",
"4. c #B7B5B7",
"5. c #B7B6B6",
"6. c #B7B7B7",
"7. c #B6B4B2",
"8. c #B9B4B4",
"9. c #B9B7B5",
"0. c #B8B8B7",
"q. c #BDBAB7",
"w. c #BCBBB7",
"e. c #BAB9B6",
"r. c #B6B4B8",
"t. c #B7B6B8",
"y. c #B9B7B8",
"u. c #B6B9B9",
"i. c #BAB8B9",
"p. c #BAB9B9",
"a. c #B8B8BA",
"s. c #BAB9BA",
"d. c #BBB9BB",
"f. c #BBBABA",
"g. c #BABABB",
"h. c #BBBABB",
"j. c #BCB9B9",
"k. c #BCBABB",
"l. c #BCBBBB",
"z. c #BDBBBB",
"x. c #BABABC",
"c. c #BBBBBC",
"v. c #BCBBBC",
"b. c #BDBBBC",
"n. c #BDBBBD",
"m. c #BDBCBD",
"M. c #BDBAB9",
/* pixels */
"o - < < < < 2 < 2 @ & < 2 < 2 2 < 1 2 2 2 2 < 2 2 < 2 2 < < < 2 < < 2 < - + o O % # % % # % % # % % # % % % % % % % % % # # O # ",
"& $.u.l.l.l.l.m...@ U l.l.l.l.l.m.m.b.m.k.b.h.c.m.h.h.h.h.h.y.h.k.k.l.h.0.* > ..=.=.@.=.&.$.O.O.8.:.=.=.<.r.=.O.=.&.r.u.8.0.] - ",
"- j m S K T / / x : U ( R U P J H G G S G G G G F G G A F A V G G K h.0.a.> t I I R J G G F G F H ..y.h.a.m.<.../ U R J P ' q.q ",
"; l z S V A S A : h A A A A A A A A A V V A A A S A A Z A A A S V j m ~ h.; 9 h x B V Z Z S Z V V V G G G V F V Z S V V S V $.q ",
"; k m S S S A j = V S S S A S A S S V Z V S V Z A S S S S S S V V x j b 0.: 8 l v B A A V G Z S F A V S S V S S Z Z Z Z S Z E 8 ",
": j B S S u , $ m V V S A S S A S V S A S Z S S S V V S S V S Z S x j l 8.> 9 j x B A S V V Z A F A S S A S V Z Z D Z Z S Z ^ q ",
": k V Z d 4 7 h S A V S Z A V S Z Z V S V S Z Z Z Z Z S V Z S V V j j j X.> 8 j x M V V G V V S Z S V V F Z Z S Z Z Z D Z Z ^ q ",
": k V t i A A A A S Z S Z S V S Z A S S V S Z F A Z Z V S A S S M j l k @.> 9 k j b S Z F A S S Z Z S Z Z Z S V Z Z D Z Z Z | q ",
"+ * $ 4 V S S V G V Z Z S V S S S V S Z Z Z S A Z Z Z Z Z Z S Z v j j j @.> 7 j j b F Z V S V V V S Z F A S F A D C D F N n s + ",
"  $ s V Z V S V V H V S G V S V S V A F V S V S Z Z Z Z Z Z Z S b j j z &.; 7 j z m Z Z S Z S S S S V A V S S F F f 2 $ +   4 2 ",
"# h v F V G S S V V G S V S A Z V S S S S S V S Z Z Z Z Z Z F Z A b j j &.; 9 j x N Z Z Z Z F A S V G V G A A N 2 9 y s f n ] 0 ",
"; k z A S V Z F S A A F Z F Z Z S S V V Z Z S V Z Z Z Z Z Z Z Z A F x j &.> 7 j c B Z Z Z Z Z S V S V V V G G 7 l D F F F B / q ",
"; l j S A Z V A S Z A G S S Z Z G V A Z Z S Z Z Z Z F Z Z Z Z Z F A b j 7.> 7 j x V V S V G S V G V G V Z Z Z , B Z Z Z F C U 0 ",
"; h x S S V G V Z F V V Z V V S V S F Z Z V Z Z Z Z Z Z Z F Z Z F A b l $.> 8 j x B Z V V V S V V A G V Z G S 9 S F Z Z Z D J 9 ",
": j n S V G S V Z Z G V G V S V S V S S V S Z Z Z Z Z Z Z C F S A A b j [ > 9 l l M F G G A F S S V V A Z Z Z i Z Z Z Z F S G 9 ",
": j M S S S S S S S Z A V S S S V A G V G V Z Z F Z Z Z S S Z S V F j j [ > 8 j j l Z Z V V S S S S F G Z F V y Z Z Z Z Z Z H q ",
"; j v A A V F A Z Z Z Z Z S Z D G G C F F B V V C F C F F Z S S V c l j ] > 9 j j j v B A F A A V A V N N Z l t F Z Z Z V c J w ",
"; l l m V V A V F B Z Z Z F Z F F G C N n c c x c c c b b n n n c j j l ' > 7 j j j j b N A B V N b x x z c 9 y M n n n c j R q ",
": j z h j j j j j j l x n n N n n l n g j j j j l k h h j j h h j j j j / ; 9 j j j j j j j j j j j j j j j + y l j j g l b 8.8 ",
"# h j j j j l j l l l l g k l k g j g l j j j h h l l j j h j j j j j j n $ ; l j j j j j j j j j j j j j f X d j j j j m | ' : ",
". $ % * * * % % * * % * * * % $ % * % * * * % % % % % % % * % % * % * % + + o $ $ * $ * $ * % % * * % % = % + % % % % - % & @ @ ",
". , , < 1 < , , , , , +   + h n x c c c c c c c n c c c c c c c c c c c c c c c v v v v v v v v c c c c c c c c x b c c c c l # ",
"# | o.o.7.7.&.&.*.*.;.g + y ! / ] ' ] ] ] ] ] ' ' ' ' ] ] ] ) ) ' ] ' ' ] ] ) ) ' ' ~ ` ` ~ ) ` ~ ) ) ] ) ] ] ] ] ] Q Q ~ ~ 9.u ",
"& J R P K P P P P P L l + 0 x N G G G G G G G G G G G G S G G G G G G G G G G G G D G S G G G G G G G G G G G G D Z m c c v I u ",
"& m V A V A F Z Z S x x $ 7 j b D F F Z Z Z Z Z H Z Z Z G V G G S Z Z Z S S S S G G V V G V S S S S S S S F Z G Z Z Z M j j V u ",
"- m V S G V Z Z Z V c x + 7 j c F C Z Z Z Z Z Z V H Z Z V V V V Z Z Z Z Z Z Z Z V A V G F A S V Z Z Z S Z Z V A Z Z Z Z l h V y ",
"- v A S Z Z Z S Z Z n x + 7 l M D Z Z Z Z Z Z Z Z Z G F Z G Z Z Z Z Z Z Z Z Z Z G V S Z Z V S S Z Z Z Z Z Z F V Z Z Z F x h V y ",
"= x G V Z Z A V Z Z M x + 7 j C F Z F Z Z Z Z F Z Z Z Z Z V Z Z Z Z Z Z Z Z S Z V S V A Z S Z V Z Z S Z Z Z A F Z Z Z V x j V u ",
"- z A Z Z S Z S Z Z N x + 7 l F Z Z Z Z Z Z Z Z Z Z Z Z S Z V Z Z Z F F S S S Z G A A F A A V A S Z V S A A A V G A A A z j V u ",
"; z V A V Z Z Z Z Z N x + 7 l B D Z F S Z Z Z Z F Z Z Z Z Z Z Z Z Z Z F S S S S A F G V F F F S S Z V G F A V V A F A A l j V u ",
"- l Z Z G S A Z Z Z B z + 7 h l M B S F Z S Z Z V N M M M M M N N B N B B N B C V V V A V V B B M m b x x j j j x b b v j j V u ",
"; z S Z V V F Z Z Z V x + 7 h j h j c n n z l l l j j j k l j j l j l j l j l l j j j j j j j j j j j j j j j j j j j j j j C u ",
"- x V Z Z Z Z Z C F F l + + w t t t t t t t y y y y y y y y y y f r y y y y y y y y y y y t t t t t t t t t t t t t t t t u t & ",
"- c F Z Z Z Z Z F F C x + % 7 9 9 9 7 9 + , 7 7 0 3 X $ 7 w w w w i w w w w w w w w 9 w w w w 9 w w w w w w w w t w w w w w 3 @ ",
"% c Z Z Z Z Z Z F Z V l + y *.X.=.:.a.=.j t ;.n.;./   g H J U P I P U ! ! C M I I I I R U I U I U U U U R R U I I ( ` u.0.0.w.e ",
"% c F Z Z Z Z Z Z Z V x + 9 m m J R -.K B > { ;.d.{   d g n C F C V N B V d 7 F C Z Z Z V V V V V V A A V A V m x b b G e.0.w.r ",
"- z Z Z C F F Z Z Z N x + 9 l x S S Z Z C M 2 j d.{   d l n F C D C N N V g d F Z G Z Z G A S V A S G V G V V G M z j j z ~ w.a ",
"- l Z Z F G S Z Z Z C x + 7 l c S V V S C F M w n { O d x N F D i 7 g n l = M D V S Z Z V V G S S S V G A V G V A b j j h z >.u ",
"; j B S N c N F F F N l + 7 l c S F S S F F F N ; {   s x C N d X N n g s b D F V V S S V G Z Z V S S A V V G F A A b j j j J u ",
"& j j x j l M D C C N x + 7 j b Z A S V F F C F , L + X + ; * ; f D F Z F C F F G A S F V V Z Z S V V S G V V A A A A x j j m u ",
"& j j j l j m S Z Z N z + 8 j n Z Z Z S V Z S V i H   y l n F C F F D F Z D Z C G G F C G V V A S V Z S Z V Z Z G G A B j j x t ",
"- j j j j j b A F V M l + 7 j n F Z Z Z S Z Z Z g D X g g n D F F C F C Z Z C F F H V F A A F S V S Z V Z Z Z Z G A A A z j v t ",
"- j j j j j v F F F g X X 7 j n Z Z Z Z Z Z Z Z N l   g l l n G F F D F F F F V Z B G F F S A F S S Z S Z V Z G V S V F l j z t ",
"& j j j j j j A B g * d + 7 j b Z S Z Z Z Z Z Z F s   f g l l n C D C F C F F V Z Z V Z A A F S S V Z S V S V Z A A S M j j z t ",
"= j j j j j j x 3 z z x X 9 l c Z Z Z Z Z Z Z Z C H X f l h l j n C N C F C F F Z Z F F V S A A S Z Z V C Z Z C A A m z j j z u ",
"= j j j j j j f 7 c l x @ 8 l b F Z Z Z Z Z Z Z C { X f l l g j g l n n l l j l l l z x v v b n b m n n m m b c z z m z j j z u ",
"= h j j j j j j 1 j l j + 7 l c Z Z Z Z Z Z Z Z F {   y h l l j x n N N g l c n c x j x v n l j c j k c v z b n z z m b z z m a ",
"= h j j j j j j , g l f + 9 k n Z Z Z Z Z Z Z Z D {   2 g g g g n n n n g g n c m b g n b n v j n g h n b v b b x z b b j v b e ",
". 8 9 w 9 w w 9 6 1 w * X 9 j n S Z Z Z Z Z Z Z G )       X X > 9 w w w @ 3 * . $ 6 $ 9 . . 7 > 7 $ + 7 = . . $ 9 * 9 . $ 9 . + ",
"K K K K K K K K B 6 K t $ 7 j N Z Z Z Z S Z Z G H ] X y J L J U Q R R U J U I K K K J U K K U K i 1 M I J R P J Y J I K P I K S ",
"J J J H H H H H B > B G , 7 j V Z S Z Z V S V Z G { X g F H H K I I I K H H R H R R J I G m G ( v w I H J R H K R J U K J I I D ",
"A A A A S F V S A 1 x B 1 7 j V Z Z Z Z S Z S Z G ) + s b C F V G H B V S A A J G A A S A M v V b > V V F V J A G V V J A A D D ",
"A S S A A Z Z V F 3 n N 1 9 l Z Z Z Z Z Z Z Z S G ' + s x M C C V V V V S S V V B A A F A F x N v $ V V V V V V V V V B A A B m ",
"A S S S Z Z Z S C y n F , 9 j C Z Z Z Z Z Z Z Z Z '   i j c Z Z A S V V S S V V A A F A A F v B v $ A V A F V G V A S S A S S D ",
"C S A A Z V A S V 3 c V , 7 j N Z Z Z Z Z Z Z Z D / o a l n F Z Z F A G S V A V F V A A A A m V v + F A A A F V V G V V Z S C C ",
"C D A S V G F V F V 9 , $ 7 j l Z Z Z G Z Z Z Z Z ! + s l N Z Z Z A V V S V S F A A G F F F m B v @ V F G V S H S V S Z Z V D C ",
"Z Z Z Z Z Z Z Z F Z n N 2 9 l j N V V G A V V S C P . s l N F A S Z V A G F S V S G A V G V m V c + N V Z Z V V G S S S A Z Z Z ",
"C Z Z Z Z Z Z Z Z S c V 2 7 l l M V V A V V G Z M P X s j c S F S V F A V V S G G V S A A V m V c + l V V S S V V G G F A Z Z C ",
"Z S Z Z Z Z Z Z F Z c N 3 7 l j M A A S G S S V n J X s j l M A V V V V M m S G V F A S F Z m V c + j N Z Z A S A V G V Z Z Z C ",
"D Z Z F V Z Z Z Z Z j B 1 7 l j n V S S F S S V l S . s j j j l x j h j j x V S V A G F V V h 7 * + l N G Z A S V G V A Z Z Z C ",
"C Z Z Z F Z V F D n g F 3 9 j l z z b b b b z j j C + s j l j j j j j j h h b A V A V 9 9 6 < f x $ l n B S Z S G V V S Z V Z C ",
"C N x c n N B B c j l B 1 7 j j j j j j j l l j l B   s j h j j j l j j j j j x M V v g S N j B c + j h z c c c c b b c k j j n ",
"j j j j j j j j j l h M 2 7 j j j j j j j j j j j Z   i h j j j j j z j j j j j j h u i j j l B l + l k j j j j j j j j k h j k ",
"5 0 0 8 0 0 7 0 0 0 0 - o % 0 7 5 8 8 0 8 8 0 0 0 3 o - 5 5 5 8 7 5 r 8 5 8 8 7 5 5 < < 8 7 5 0 & o : 7 5 8 5 8 8 8 0 0 8 0 5 p "
};
